<?xml version="1.0" encoding="UTF-8" standalone="no"?>
<!DOCTYPE svg PUBLIC "-//W3C//DTD SVG 1.1//EN" "http://www.w3.org/Graphics/SVG/1.1/DTD/svg11.dtd">
<svg width="100%" height="100%" viewBox="0 0 104 97" version="1.1" xmlns="http://www.w3.org/2000/svg" xmlns:xlink="http://www.w3.org/1999/xlink" xml:space="preserve" xmlns:serif="http://www.serif.com/" style="fill-rule:evenodd;clip-rule:evenodd;stroke-linecap:round;">
    <path d="M14,85L17,94L89,94C89,94 94,85 93,84C91,82 14,84 14,85" style="fill:rgb(124,78,50);fill-rule:nonzero;"/>
    <path d="M19,47C19,47 10,54 6,61C1,67 9,68 9,68L10,82C10,82 20,90 33,90C47,90 59,91 61,90C63,89 70,88 70,86C71,85 97,87 97,77C97,67 104,57 86,48C69,39 19,47 19,47" style="fill:rgb(227,0,0);fill-rule:nonzero;"/>
    <path d="M17,32C14,80 97,75 88,29L53,14" style="fill:rgb(255,225,196);fill-rule:nonzero;"/>
    <path d="M17,32C26,-4 78,0 88,29C68,20 48,20 17,32" style="fill:rgb(142,216,248);fill-rule:nonzero;"/>
    <path d="M54,35C54.015,32.015 55.333,29.491 57.544,28.214C61.345,26.02 66.729,28.124 69.472,32.874C72.215,37.625 71.345,43.34 67.544,45.535C63.743,47.729 58.359,45.625 55.616,40.874C54.574,39.071 54.01,37.052 54,35.1L54,35ZM37,38C37.01,36.048 37.574,34.029 38.616,32.226C41.359,27.475 46.743,25.371 50.544,27.565C54.345,29.76 55.215,35.475 52.472,40.226C49.729,44.976 44.345,47.08 40.544,44.886C38.333,43.609 37.015,41.085 37,38.1L37,38Z" style="fill:white;fill-rule:nonzero;"/>
    <path d="M41,6C42,5 45,3 49,3C52,3 58,2 63,6L62,8L53,8C51,7 52,7 52,7L49,8L47,7L46,7C46,7 45,9 43,9C43,9 41,8 41,6M17,34L17,32C17,32 52,12 88,29L88,31C88,31 53,14 17,34M5,62C8,60 10,60 13,62C16,64 26,68 21,73C19,75 15,73 13,73C12,74 9,75 7,74C3,71 1,66 5,62M99,59C99,59 90,57 88,63L85,68C85,69 83,71 88,71C93,71 93,73 95,73C98,73 102,72 102,69C102,65 101,58 99,59" style="fill:rgb(255,242,0);fill-rule:nonzero;"/>
    <path d="M56,78L56,79M55,69L55,70M55,87L55,88" style="fill-rule:nonzero;stroke:black;stroke-width:1px;"/>
    <path d="M60,36C59.974,36.529 59.531,36.95 59.001,36.95C58.453,36.95 58.001,36.499 58.001,35.95C58.001,35.401 58.453,34.95 59.001,34.95C59.531,34.95 59.974,35.371 60,35.9M49,36C48.974,36.529 48.531,36.95 48.001,36.95C47.453,36.95 47.001,36.499 47.001,35.95C47.001,35.401 47.453,34.95 48.001,34.95C48.531,34.95 48.974,35.371 49,35.9M57,55C56.982,56.627 56.085,57.95 55,57.95C53.903,57.95 53,56.596 53,54.95C53,53.304 53.903,51.95 55,51.95C56.085,51.95 56.982,53.273 57,54.9M12,94C12,94 32,90 54,94C54,94 81,90 93,94L12,94Z" style="fill-rule:nonzero;"/>
    <path d="M50,59C50,59 54,62 60,59M56,66L58,78L56,90M25,50C25,50 35,62 48,62C61,62 72,62 83,47" style="fill:none;fill-rule:nonzero;stroke:black;stroke-width:0.5px;stroke-linecap:butt;"/>
</svg>
