<?xml version="1.0" encoding="UTF-8" standalone="no"?>
<!DOCTYPE svg PUBLIC "-//W3C//DTD SVG 1.1//EN" "http://www.w3.org/Graphics/SVG/1.1/DTD/svg11.dtd">
<svg width="100%" height="100%" viewBox="0 0 376 350" version="1.1" xmlns="http://www.w3.org/2000/svg" xmlns:xlink="http://www.w3.org/1999/xlink" xml:space="preserve" xmlns:serif="http://www.serif.com/" style="fill-rule:evenodd;clip-rule:evenodd;stroke-linecap:round;stroke-linejoin:round;stroke-miterlimit:1.5;">
    <g transform="matrix(-1,0,0,1,376,0)">
        <path d="M50,144C50,144 48.153,151.046 57,149C65.847,146.954 161.263,124.363 210,77C251.379,36.787 240.128,16.411 216,16C176.005,15.319 114.64,55.637 91,92C70.703,123.221 17.568,230.899 31,227C41.408,223.979 64.9,169.589 73,153" style="fill:none;stroke:black;stroke-width:8px;"/>
    </g>
    <g transform="matrix(-1,0,0,1,376,0)">
        <path d="M117,164C117,164 154.01,168.433 176,156C202.164,141.207 306.357,48.932 307,34C307.342,26.069 208.751,104.785 192,121.547C175.249,138.31 83.946,238.191 73,240C62.054,241.809 82.996,221.218 101,223" style="fill:none;stroke:black;stroke-width:8px;"/>
    </g>
    <g transform="matrix(-1,0,0,1,376,0)">
        <path d="M164,190C164,190 172.099,176.224 163,175C153.901,173.776 83.715,230.929 105,248C126.285,265.071 182.316,212.397 176,192C172.651,181.184 113.634,181.895 113,193C112.366,204.105 180.023,186.005 188,185C195.977,183.995 111.118,251.549 139,261C175.433,273.35 315.054,136.891 302,125.547C287.74,113.155 205.674,192.216 192,210C167.807,241.463 149.326,294.666 216,248C262.007,215.799 227.004,231.088 214,240.113C202.049,248.407 167.34,292.49 208,280C248.66,267.51 256.1,250.905 274,240.113C291.9,229.321 219.164,280.531 232,292C238.28,297.611 264.693,278.043 276,284C287.307,289.957 284,290 284,290" style="fill:none;stroke:black;stroke-width:8px;"/>
    </g>
</svg>
