<?xml version="1.0" standalone="no"?>
<!DOCTYPE svg PUBLIC "-//W3C//DTD SVG 20010904//EN"
 "http://www.w3.org/TR/2001/REC-SVG-20010904/DTD/svg10.dtd">
<svg version="1.0" xmlns="http://www.w3.org/2000/svg"
 width="1581.000000pt" height="2055.000000pt" viewBox="0 0 1581.000000 2055.000000"
 preserveAspectRatio="xMidYMid meet">

<g transform="translate(0.000000,2055.000000) scale(0.100000,-0.100000)"
fill="#000000" stroke="none">
<path d="M7365 19440 c-93 -12 -228 -46 -370 -94 -71 -24 -161 -54 -200 -66
-38 -12 -158 -59 -266 -105 -108 -47 -230 -96 -270 -111 -111 -39 -628 -301
-780 -395 -74 -45 -167 -101 -207 -123 -236 -132 -630 -406 -847 -588 -55 -46
-145 -117 -200 -157 -269 -198 -598 -502 -775 -715 -102 -123 -285 -386 -327
-471 -20 -38 -48 -88 -64 -110 -16 -22 -46 -85 -68 -140 -21 -55 -62 -149 -91
-210 -28 -60 -73 -164 -100 -230 -26 -66 -86 -201 -133 -300 -103 -220 -119
-263 -202 -535 -46 -153 -81 -297 -119 -495 -104 -535 -147 -778 -161 -916
-14 -128 -14 -154 4 -346 11 -115 25 -352 30 -528 6 -176 13 -381 16 -455 2
-74 -3 -278 -11 -452 -14 -283 -14 -325 0 -395 8 -43 18 -123 21 -178 3 -55
13 -172 21 -260 8 -87 19 -275 24 -416 10 -252 27 -413 70 -642 27 -139 34
-157 63 -157 13 0 28 -5 34 -11 8 -8 25 -8 57 -1 26 5 48 7 50 3 2 -3 7 -32
11 -64 5 -47 12 -63 36 -84 16 -15 34 -45 40 -67 6 -23 21 -57 33 -76 30 -47
43 -87 66 -200 10 -52 35 -140 55 -195 103 -277 102 -272 124 -615 7 -100 16
-163 30 -203 30 -86 39 -148 56 -407 9 -129 22 -266 30 -305 16 -81 65 -208
93 -239 60 -66 85 -144 157 -491 9 -44 25 -104 36 -133 29 -80 97 -199 132
-230 91 -80 93 -83 131 -207 48 -156 88 -256 152 -385 29 -58 55 -116 59 -130
10 -33 58 -134 93 -190 91 -151 232 -364 347 -525 38 -53 132 -186 189 -270
19 -27 39 -55 44 -61 6 -6 17 -24 26 -40 9 -16 29 -45 44 -65 93 -124 109
-145 116 -159 14 -30 32 -56 75 -110 113 -140 198 -415 144 -462 -10 -8 -58
-39 -108 -69 -123 -73 -201 -133 -325 -248 -58 -53 -132 -117 -165 -141 -33
-24 -87 -69 -120 -100 -150 -140 -279 -229 -500 -345 -49 -26 -97 -53 -106
-61 -8 -8 -20 -14 -26 -14 -5 0 -36 -17 -69 -37 -32 -21 -98 -58 -146 -82 -49
-25 -88 -48 -88 -53 0 -4 -4 -8 -9 -8 -12 0 -104 -56 -281 -171 -195 -127
-293 -186 -398 -240 -46 -23 -103 -60 -127 -81 -23 -21 -46 -38 -50 -38 -4 0
-40 -24 -79 -54 -39 -30 -105 -73 -146 -96 -41 -22 -104 -61 -139 -85 -35 -25
-72 -45 -82 -45 -10 0 -22 -6 -26 -14 -15 -25 -178 -143 -292 -211 -9 -5 -37
-26 -61 -47 -25 -20 -88 -57 -142 -82 -62 -30 -119 -66 -161 -104 -74 -65
-225 -162 -350 -222 -26 -13 -85 -56 -130 -96 -45 -41 -88 -74 -94 -74 -7 0
-13 -4 -13 -10 0 -5 -7 -10 -15 -10 -8 0 -15 -4 -15 -10 0 -5 -5 -10 -11 -10
-6 0 -30 -14 -55 -31 -24 -16 -75 -44 -112 -60 -37 -17 -79 -37 -94 -45 -14
-8 -33 -14 -41 -14 -8 0 -40 -13 -73 -29 -32 -17 -85 -38 -117 -48 -33 -10
-72 -30 -88 -45 -27 -25 -29 -31 -29 -106 0 -85 10 -105 39 -78 9 9 33 21 52
28 19 6 36 14 39 17 7 9 135 67 188 85 23 8 57 26 75 39 17 14 50 34 72 45 38
19 137 81 162 102 7 6 17 10 23 10 5 0 10 3 10 8 0 4 26 21 57 37 32 17 85 53
118 80 34 28 80 61 104 75 23 14 77 50 121 80 43 30 107 73 142 94 35 22 95
63 133 92 39 28 90 62 115 74 40 20 103 61 283 183 26 17 72 51 102 75 31 24
65 49 78 56 33 18 196 124 242 157 22 16 65 41 96 57 31 15 75 43 99 62 23 19
57 44 75 55 31 18 155 101 250 165 22 15 92 58 155 96 63 37 133 80 154 96 21
15 47 28 56 28 9 0 25 9 34 19 10 11 31 25 47 31 16 7 29 16 29 21 0 5 7 9 15
9 8 0 15 4 15 8 0 9 241 152 256 152 13 0 103 49 139 75 17 12 44 27 60 32 17
6 54 26 82 46 29 19 67 39 85 42 18 4 42 14 53 21 11 8 30 14 42 14 13 0 22 5
20 12 -1 6 20 26 46 43 26 18 81 63 121 101 99 94 191 169 255 210 30 18 109
89 175 156 68 69 154 145 196 173 41 28 77 53 80 56 7 9 111 61 115 57 1 -2
10 -19 20 -38 28 -55 22 -95 -32 -215 -28 -60 -53 -119 -57 -130 -3 -11 -15
-31 -25 -44 l-19 -24 -11 21 c-15 28 -34 28 -72 0 -26 -19 -33 -21 -62 -10
-19 7 -41 12 -50 12 -20 0 -57 -56 -57 -85 0 -11 -7 -30 -15 -42 -13 -18 -13
-34 -5 -97 9 -62 8 -83 -5 -121 -8 -26 -15 -80 -15 -124 0 -64 4 -82 20 -101
16 -18 20 -37 20 -95 0 -55 4 -78 19 -96 10 -13 26 -39 35 -56 9 -18 22 -33
30 -33 16 0 63 52 68 76 2 11 7 -37 11 -106 4 -69 13 -151 21 -182 7 -32 11
-60 8 -63 -22 -22 -82 24 -82 63 0 24 -3 26 -44 36 l-29 7 7 -63 c14 -134 18
-150 37 -155 11 -3 19 -13 19 -22 0 -20 19 -41 37 -41 7 0 13 11 13 24 0 32
20 86 32 86 6 0 7 -9 3 -22 -14 -43 -17 -106 -6 -127 8 -13 22 -21 39 -21 40
0 53 -12 72 -68 15 -43 16 -53 5 -62 -22 -18 -54 -2 -109 54 l-51 51 -9 -64
c-8 -53 -7 -66 6 -75 26 -20 38 -53 38 -111 0 -30 7 -72 15 -91 22 -54 73
-112 115 -134 20 -10 51 -35 68 -55 26 -29 32 -44 32 -84 0 -52 19 -77 75
-100 19 -8 46 -36 74 -79 25 -37 54 -77 65 -90 18 -20 19 -27 8 -70 -19 -71
-3 -106 53 -122 50 -14 56 -20 75 -70 7 -19 28 -55 45 -80 18 -25 45 -70 60
-100 15 -29 38 -70 51 -90 12 -19 26 -51 29 -71 4 -24 17 -44 36 -58 16 -12
41 -40 55 -63 15 -23 63 -78 109 -123 51 -51 95 -105 116 -145 42 -79 74 -100
154 -100 68 0 95 11 78 32 -5 7 -24 39 -42 71 -31 59 -37 103 -22 172 3 17 1
72 -6 124 -11 78 -11 98 0 115 20 31 27 90 32 291 3 99 10 203 16 230 19 85 9
279 -19 360 -6 17 -16 50 -22 75 -12 46 -20 64 -47 114 -9 17 -19 57 -23 90
-11 91 -41 219 -54 236 -31 39 -48 101 -56 199 -5 64 -5 110 1 116 13 13 11
41 -5 54 -7 6 -16 36 -20 67 -3 31 -15 73 -25 95 -14 29 -19 61 -19 136 0 65
-6 113 -17 143 -24 67 -62 273 -69 373 l-6 87 31 0 c26 0 44 -13 105 -79 41
-43 87 -95 102 -114 33 -43 155 -192 247 -302 37 -44 88 -100 114 -125 25 -25
87 -88 136 -139 88 -91 276 -251 295 -251 5 0 21 -22 35 -49 27 -55 80 -101
114 -101 14 0 25 -9 31 -25 5 -14 14 -25 20 -25 5 0 33 -23 62 -52 30 -30 64
-54 82 -58 31 -6 31 -7 28 -63 -3 -63 9 -78 47 -58 22 12 39 6 90 -32 15 -11
42 -17 73 -17 34 0 50 -4 54 -15 4 -9 19 -15 39 -15 19 0 37 -5 40 -10 3 -6
18 -10 32 -10 31 0 103 -56 132 -104 17 -27 31 -36 61 -41 36 -6 39 -9 34 -31
-5 -20 -2 -26 15 -31 11 -3 21 -10 21 -15 0 -13 -81 -48 -170 -73 l-75 -21 3
-34 c2 -19 4 -72 7 -117 l3 -82 49 -49 c60 -60 204 -168 235 -177 13 -3 33
-11 46 -18 17 -8 31 -8 54 1 22 8 45 8 82 1 28 -6 106 -10 174 -10 82 0 137
-5 164 -15 22 -8 76 -14 120 -14 65 0 84 4 108 21 24 18 37 21 76 15 27 -3 63
-11 80 -18 27 -9 37 -9 58 5 26 18 49 14 78 -11 12 -10 29 -13 54 -9 31 5 39
2 61 -23 44 -53 85 -39 190 67 35 35 68 63 74 63 17 0 82 73 102 112 8 18 20
52 26 75 13 49 51 89 142 153 149 105 249 212 249 267 0 7 4 13 9 13 5 0 11 8
15 17 3 10 28 60 55 112 44 83 50 102 57 179 6 78 10 89 38 118 17 18 69 76
116 129 47 54 91 103 99 109 8 6 38 35 68 63 30 29 70 65 89 79 19 15 34 30
34 35 0 6 16 23 35 40 19 17 44 48 56 69 12 20 41 50 64 65 24 14 45 35 48 46
6 22 27 26 27 4 0 -8 -5 -26 -12 -41 -10 -22 -10 -28 6 -39 14 -11 15 -17 7
-34 -6 -11 -11 -30 -11 -43 0 -13 -7 -33 -15 -44 -8 -10 -15 -28 -15 -38 0
-11 -19 -51 -43 -90 -58 -97 -77 -132 -77 -145 0 -5 -15 -31 -32 -57 -62 -88
-65 -97 -73 -205 -7 -101 -8 -105 -44 -144 -29 -32 -106 -173 -145 -265 -4 -8
-13 -26 -21 -40 -9 -15 -15 -52 -15 -92 0 -55 3 -69 18 -77 11 -6 32 -47 51
-101 20 -55 40 -94 52 -100 10 -6 19 -21 20 -33 1 -20 1 -20 8 3 4 17 15 26
31 28 28 4 160 134 160 158 0 7 9 23 19 33 11 11 23 41 27 68 7 52 26 97 46
110 7 4 24 28 37 53 27 51 57 79 84 80 11 0 21 9 24 20 7 27 17 25 47 -11 l26
-31 0 -203 c0 -112 4 -206 8 -209 15 -9 1 -179 -16 -199 -13 -15 -14 -22 -4
-37 6 -11 9 -26 6 -34 -3 -7 0 -33 6 -56 9 -32 31 -61 94 -124 46 -44 88 -91
95 -103 7 -14 21 -23 34 -23 13 0 28 -5 34 -11 19 -19 148 8 184 38 25 21 46
27 120 35 60 6 102 16 127 30 72 41 92 49 154 62 60 12 63 14 62 42 -1 16 -11
54 -22 84 -32 89 -36 120 -18 120 9 0 16 8 16 20 0 11 13 29 30 41 16 12 34
36 40 52 15 46 13 132 -5 147 -27 22 -101 295 -91 334 3 13 1 47 -4 76 -7 39
-7 58 4 78 7 15 19 52 26 82 27 116 91 220 135 220 7 0 20 -11 29 -25 18 -28
53 -33 62 -10 5 13 10 11 26 -7 11 -13 27 -33 35 -45 9 -14 25 -23 41 -23 25
0 115 21 176 40 23 7 32 6 41 -7 9 -12 18 -14 40 -6 29 9 34 15 55 68 l12 30
29 -35 c56 -67 111 -120 126 -120 22 0 40 -44 29 -72 -7 -21 -6 -31 6 -45 9
-10 19 -33 23 -51 7 -33 14 -39 31 -22 5 5 32 13 59 16 41 6 55 13 80 43 39
47 87 91 99 91 5 0 19 9 31 20 21 20 24 20 110 5 102 -18 181 -19 190 -4 4 5
17 14 28 20 12 5 33 17 47 26 13 10 21 13 17 7 -4 -7 0 -15 9 -18 27 -10 37
-7 32 12 -3 12 6 26 29 42 71 51 106 86 120 117 7 18 20 33 28 33 8 0 21 15
29 34 24 57 96 91 96 46 0 -18 3 -19 20 -10 50 27 64 110 29 175 -12 22 -41
76 -64 120 -24 48 -51 85 -66 92 -36 19 -105 16 -149 -7 -22 -11 -47 -20 -56
-20 -10 0 -25 -7 -35 -16 -17 -15 -19 -15 -34 0 -35 34 -216 70 -228 45 -4 -8
-18 -32 -32 -54 -13 -22 -29 -50 -34 -62 -15 -32 -42 -43 -109 -43 -45 0 -66
5 -86 21 -14 11 -26 25 -26 30 0 6 -14 28 -32 50 -27 33 -37 39 -69 39 -53 0
-72 30 -73 118 -1 78 10 126 54 242 17 47 34 96 37 110 8 37 31 59 77 71 87
24 199 8 256 -36 8 -7 42 -22 76 -34 50 -18 72 -21 121 -16 70 8 97 -2 184
-75 l56 -47 124 -13 c68 -7 195 -12 283 -11 191 1 351 -19 416 -53 25 -13 87
-35 138 -50 81 -23 99 -32 133 -68 21 -23 41 -56 44 -72 6 -30 3 -115 -10
-301 -4 -54 -3 -100 3 -115 l11 -25 0 30 c1 21 11 39 30 56 19 17 32 40 36 65
3 21 12 50 20 64 7 14 23 58 34 98 18 57 26 72 41 72 13 0 20 -7 20 -20 0 -10
8 -36 17 -55 17 -36 17 -37 -11 -88 -16 -29 -44 -66 -62 -84 -37 -34 -54 -70
-54 -108 0 -14 -13 -40 -30 -58 l-30 -35 0 -133 c0 -74 5 -141 10 -149 8 -13
10 -13 10 1 0 9 7 19 15 22 8 4 26 28 39 56 42 82 49 78 61 -43 3 -32 8 -63
11 -67 11 -18 47 -8 74 21 15 16 30 26 34 23 13 -13 5 -51 -15 -69 -16 -15
-24 -16 -39 -6 -31 19 -58 14 -76 -13 -9 -13 -25 -27 -35 -30 -11 -4 -24 -16
-29 -28 -6 -12 -19 -33 -30 -47 -14 -18 -25 -56 -35 -117 -7 -50 -18 -100 -24
-111 -6 -11 -12 -49 -13 -84 -3 -76 9 -98 56 -99 l31 -1 -34 -14 c-40 -18 -58
-13 -71 20 -5 13 -14 27 -19 31 -6 3 -11 21 -11 40 0 46 -11 50 -47 14 -27
-25 -32 -39 -38 -99 -7 -69 -18 -89 -28 -50 -7 26 -35 16 -43 -15 -9 -35 4
-64 31 -71 37 -9 60 -41 57 -79 -2 -18 2 -36 8 -40 20 -12 49 27 75 100 18 52
25 65 30 50 17 -51 26 -66 49 -74 55 -22 56 -20 86 66 25 72 26 84 13 95 -13
10 -7 19 36 59 40 37 51 54 51 78 0 23 10 42 35 66 36 37 46 64 75 205 l17 85
39 5 c30 4 43 12 59 37 11 18 23 32 26 33 4 0 9 -22 13 -50 6 -46 9 -50 44
-60 85 -23 95 -12 63 70 l-17 45 33 38 c18 20 33 46 33 57 0 16 7 20 30 20 39
0 70 31 70 71 0 26 3 30 18 24 9 -4 29 -10 44 -13 46 -7 52 -24 33 -87 -14
-43 -16 -71 -10 -132 10 -114 10 -141 -4 -208 -20 -97 -19 -95 -59 -95 -20 0
-50 -9 -67 -20 -16 -11 -42 -20 -57 -20 -32 0 -33 -7 -17 -95 6 -33 20 -72 31
-87 l19 -28 -29 0 c-18 0 -37 -10 -52 -25 -13 -14 -29 -25 -36 -25 -7 0 -16
-17 -19 -37 -3 -21 -12 -58 -20 -83 -8 -25 -17 -65 -21 -90 -4 -30 -16 -55
-35 -73 -19 -19 -32 -46 -39 -85 -7 -31 -23 -71 -36 -89 -13 -17 -24 -36 -24
-41 0 -5 -7 -15 -16 -23 -13 -10 -20 -10 -44 5 -23 13 -34 14 -50 6 -25 -13
-25 -27 0 -65 11 -16 20 -43 20 -59 0 -18 10 -40 25 -56 23 -24 27 -40 39
-169 7 -78 18 -147 24 -153 20 -20 60 11 79 61 9 25 26 60 38 76 25 35 43 73
47 98 2 10 8 18 13 18 6 1 15 5 21 10 19 16 63 -8 86 -46 24 -42 51 -43 56 -3
3 23 -2 30 -31 42 -34 14 -34 14 -29 67 2 30 11 66 18 81 19 37 18 55 -6 85
-24 30 -26 56 -5 73 24 20 46 70 60 138 15 67 55 154 86 188 10 11 19 34 19
52 0 22 6 35 21 43 19 10 21 17 15 59 -7 49 -3 60 47 137 31 48 34 63 12 63
-11 0 -15 12 -15 49 0 31 5 53 15 61 8 7 15 19 15 28 0 8 7 23 15 32 8 9 19
51 25 93 8 69 13 81 47 117 21 22 44 40 52 40 13 0 13 -4 -5 -66 -11 -42 85
-122 98 -82 3 7 12 9 22 5 12 -5 15 -13 11 -28 -5 -16 1 -28 25 -50 38 -35 44
-36 83 -3 28 23 36 25 87 19 89 -10 90 -9 90 207 l0 180 -25 -6 c-14 -4 -45
-9 -70 -13 -66 -9 -60 16 18 73 34 25 65 51 69 58 12 18 9 161 -3 173 -8 8 -8
13 0 17 6 4 11 32 11 62 l0 56 -32 -4 c-42 -4 -53 28 -14 38 39 9 46 54 46
284 l0 205 -54 45 c-30 24 -74 66 -97 93 -41 49 -121 107 -145 107 -7 0 -44
18 -82 41 -39 22 -92 44 -119 48 -26 5 -99 29 -161 55 -62 25 -125 46 -141 46
-27 0 -69 11 -181 45 -25 8 -83 17 -130 21 -101 8 -116 15 -254 131 -118 98
-139 113 -279 189 -60 32 -129 76 -155 97 -109 87 -102 84 -333 96 -143 7
-215 15 -241 26 -21 8 -64 22 -95 30 -85 22 -519 85 -658 95 -66 5 -156 13
-200 19 -108 14 -393 32 -595 38 -213 5 -204 10 -264 -130 -23 -53 -30 -60
-81 -83 -31 -15 -59 -23 -62 -20 -3 3 -1 56 6 118 13 133 62 325 98 388 15 25
61 110 103 190 42 80 96 181 119 225 24 44 56 101 72 126 16 25 34 61 41 80 6
19 23 52 37 73 14 21 38 57 53 80 15 23 33 57 39 76 6 19 38 85 70 145 80 152
200 466 264 690 80 282 136 524 149 644 8 72 17 135 20 139 3 5 8 62 11 127 3
66 9 123 14 128 5 5 30 -2 58 -17 70 -35 166 -49 292 -44 85 4 120 11 181 34
131 51 233 179 262 330 6 32 23 93 39 134 15 41 48 156 74 255 26 99 66 225
90 280 48 113 60 158 76 300 14 121 15 609 1 720 -9 78 -8 85 40 275 45 180
50 209 58 375 16 304 19 318 86 373 46 38 61 85 70 213 4 74 11 107 21 116 13
10 14 23 3 96 -8 62 -9 91 -1 105 16 30 14 303 -3 382 -8 36 -26 92 -39 125
-21 50 -23 61 -11 68 19 11 18 67 -1 94 -8 12 -25 23 -37 25 -30 4 -35 36 -9
54 12 9 21 26 21 41 0 15 5 41 11 58 10 26 7 48 -16 136 -22 81 -27 124 -26
194 1 82 -1 96 -30 155 -25 52 -33 85 -40 167 -6 66 -18 126 -34 170 -26 67
-57 221 -49 235 3 4 41 15 86 25 119 25 121 28 103 138 -17 101 -30 290 -45
657 -14 334 -29 451 -101 776 -48 220 -81 339 -159 577 -54 165 -108 336 -120
380 -12 44 -61 206 -110 360 -49 154 -98 316 -109 360 -59 233 -193 601 -265
729 -116 204 -188 299 -389 516 -17 19 -101 96 -186 170 -84 74 -192 171 -240
215 -113 105 -221 194 -341 280 -54 39 -179 131 -277 206 -361 275 -589 433
-719 498 -143 72 -399 153 -698 221 -326 74 -340 78 -513 152 -167 70 -330
161 -523 293 -163 110 -198 129 -346 183 -85 32 -147 46 -260 62 -82 11 -212
30 -289 41 -285 42 -637 59 -800 39z m3479 -4555 c11 -17 12 -32 4 -71 -9 -43
-8 -50 8 -59 10 -5 36 -26 57 -46 38 -34 40 -38 45 -112 4 -70 2 -82 -25 -139
-17 -35 -38 -84 -48 -110 -9 -27 -21 -48 -26 -48 -5 0 -9 -6 -9 -14 0 -8 -18
-30 -39 -48 -22 -19 -43 -46 -47 -62 -3 -15 -17 -32 -30 -38 -13 -6 -24 -14
-24 -18 0 -4 -9 -17 -20 -30 -41 -47 -16 -107 40 -95 17 4 30 3 30 -2 0 -12
-40 -48 -62 -56 -12 -4 -18 -17 -18 -37 0 -20 -6 -33 -17 -37 -25 -8 -83 -64
-83 -79 0 -7 -21 -24 -47 -39 -27 -15 -58 -37 -71 -48 -28 -26 -158 -66 -234
-74 -42 -4 -62 -1 -79 11 -32 22 -60 20 -66 -4 -4 -15 -14 -20 -38 -20 -18 0
-38 -7 -46 -16 -9 -11 -21 -14 -43 -9 -17 4 -69 9 -116 10 -47 1 -116 9 -155
18 -122 27 -173 31 -198 14 -27 -18 -75 -27 -192 -35 -83 -6 -90 -9 -93 -29
-2 -12 -9 -20 -15 -17 -7 2 -73 10 -147 18 -74 8 -155 20 -180 26 -25 7 -73
12 -106 11 -56 -2 -62 0 -67 20 -4 17 5 32 38 65 24 24 46 44 49 44 3 0 43 39
88 86 46 48 117 113 158 144 41 32 104 88 140 125 77 79 130 118 185 134 22 7
58 20 79 29 38 16 39 16 54 -6 20 -31 37 -28 92 18 26 22 53 40 59 40 6 0 29
18 51 40 22 22 47 40 55 40 9 0 26 6 38 14 12 8 41 17 63 21 50 8 68 27 118
125 52 102 60 111 66 74 6 -35 39 -44 75 -20 13 9 36 16 49 16 34 0 77 40 129
120 30 46 51 67 72 74 49 14 59 21 80 56 28 47 73 92 84 86 14 -9 -15 -104
-49 -158 -16 -27 -30 -62 -30 -78 0 -16 -9 -49 -19 -72 -39 -89 -62 -158 -59
-175 4 -22 76 -32 82 -11 17 59 43 116 60 134 23 23 28 31 118 186 35 59 68
106 73 104 18 -5 63 -80 70 -116 11 -58 22 -16 35 135 16 189 22 209 32 101 4
-49 14 -99 22 -111z m-2146 -1405 c82 -6 146 -18 195 -34 39 -13 99 -27 132
-30 123 -11 221 -24 238 -31 10 -4 22 -18 27 -30 6 -17 19 -24 51 -28 24 -3
51 -1 60 4 26 13 52 12 42 -3 -4 -7 -10 -31 -13 -53 -4 -33 -11 -43 -37 -55
-18 -9 -40 -26 -49 -38 -8 -12 -19 -20 -24 -17 -11 7 -60 -78 -60 -104 0 -17
-4 -20 -30 -15 -28 6 -31 4 -60 -57 -35 -74 -37 -110 -11 -164 17 -35 17 -42
5 -59 -19 -27 -18 -85 1 -92 8 -4 27 2 43 12 15 11 50 21 77 24 l50 5 31 78
c18 43 37 84 43 90 22 22 23 -4 2 -74 -23 -73 -22 -99 3 -99 23 0 84 75 97
120 7 23 20 44 28 47 9 2 36 14 61 25 30 12 60 18 85 15 l40 -4 -41 -1 c-40
-2 -42 -4 -47 -39 -4 -21 -9 -52 -13 -70 -6 -28 -3 -33 29 -48 31 -15 41 -15
84 -3 40 11 48 18 51 40 3 25 6 27 80 34 42 3 88 11 102 16 20 8 27 6 39 -11
10 -15 24 -21 51 -21 28 0 41 -6 52 -22 l15 -22 120 19 c73 11 138 15 166 11
26 -3 67 -9 92 -12 31 -5 45 -3 45 5 0 6 5 11 10 11 6 0 10 -7 10 -15 0 -8 5
-15 10 -15 6 0 10 5 10 11 0 6 15 2 33 -9 23 -15 58 -22 127 -27 168 -11 195
-39 74 -75 -81 -24 -114 -47 -114 -80 0 -20 4 -20 78 -14 42 4 88 12 102 19
27 14 141 38 147 31 2 -2 -14 -17 -36 -32 -44 -31 -50 -58 -19 -78 14 -8 31
-3 80 22 41 21 91 36 143 43 59 9 85 18 98 33 16 20 18 20 28 4 5 -10 16 -18
24 -18 8 0 33 -18 57 -40 l43 -40 -41 0 c-22 0 -45 5 -52 12 -8 8 -12 8 -12 1
0 -11 25 -22 90 -42 42 -13 108 -77 93 -92 -5 -5 -36 -13 -69 -17 -54 -6 -59
-9 -59 -32 0 -20 7 -26 44 -37 25 -7 49 -17 55 -23 13 -13 49 -13 63 1 16 16
33 2 33 -28 0 -24 2 -25 40 -19 23 3 49 11 59 18 14 9 23 6 44 -12 34 -30 34
-48 0 -52 -48 -5 -36 -37 27 -74 30 -18 62 -40 71 -51 9 -10 21 -54 27 -101 7
-46 18 -96 26 -110 33 -61 43 -90 50 -141 4 -30 11 -62 16 -72 5 -9 18 -72 29
-139 11 -67 24 -127 29 -133 13 -16 18 -41 42 -196 24 -161 25 -187 4 -258
-13 -44 -19 -53 -32 -47 -10 3 -27 9 -40 11 -12 3 -25 9 -28 14 -3 5 -18 9
-33 9 -16 0 -34 7 -41 15 -7 8 -18 15 -24 15 -7 0 -28 16 -47 36 -18 20 -47
45 -64 56 l-30 20 39 -6 c42 -6 76 7 76 28 0 18 -33 46 -83 71 -49 25 -101
111 -111 183 -4 30 -17 60 -37 85 -25 31 -33 53 -41 114 -10 82 -21 113 -42
113 -7 0 -21 9 -31 20 -10 11 -24 20 -31 20 -17 0 -54 -72 -54 -105 0 -31 25
-93 47 -117 15 -17 15 -18 -6 -18 -32 0 -74 27 -97 61 -11 17 -42 38 -79 54
-72 31 -154 73 -175 90 -58 47 -430 140 -430 108 0 -26 40 -53 100 -68 36 -9
82 -27 103 -41 33 -22 38 -30 35 -57 -3 -31 -5 -32 -58 -39 -43 -5 -59 -12
-78 -35 l-22 -28 -18 22 c-11 14 -33 24 -63 28 -41 6 -47 5 -52 -14 -4 -16
-13 -21 -42 -21 -20 0 -46 5 -57 11 -27 15 -114 25 -361 44 -270 20 -314 20
-359 -5 -47 -25 -111 -16 -117 15 -6 35 -22 45 -72 45 -46 0 -106 -20 -139
-46 -8 -7 -42 -15 -75 -17 -33 -3 -89 -10 -125 -15 -57 -9 -69 -8 -96 9 -17
10 -35 19 -40 19 -5 0 -32 -22 -59 -48 -28 -26 -61 -53 -75 -60 -73 -38 -80
-44 -80 -67 0 -13 -4 -27 -10 -30 -17 -11 -11 -51 11 -71 20 -18 21 -18 71 10
32 18 53 25 60 18 10 -10 -51 -52 -76 -52 -7 0 -21 -9 -31 -20 -23 -25 -110
-76 -145 -85 -23 -5 -28 -1 -44 35 -14 33 -16 46 -6 74 13 42 86 136 105 136
22 0 63 39 70 67 8 32 60 84 122 120 24 14 43 32 43 40 0 8 -17 31 -37 49 -31
29 -44 34 -84 34 -50 0 -215 -48 -255 -75 -13 -8 -30 -15 -38 -15 -9 0 -25
-13 -38 -30 -12 -16 -30 -30 -40 -30 -10 0 -18 -7 -18 -15 0 -9 -11 -20 -24
-25 -13 -5 -32 -20 -43 -34 -10 -14 -33 -42 -51 -62 -18 -20 -35 -48 -39 -62
-3 -14 -12 -37 -19 -51 -16 -30 -18 -63 -5 -77 5 -5 11 -36 13 -69 3 -44 15
-83 45 -146 40 -82 45 -87 126 -142 62 -41 100 -77 144 -134 92 -117 116 -136
221 -172 114 -38 132 -39 132 -7 0 44 -153 211 -217 235 -32 13 -63 67 -63
112 0 22 2 22 111 3 23 -3 39 -2 43 5 4 6 16 11 27 11 14 0 19 -7 19 -25 0
-65 82 -87 287 -79 159 7 178 10 216 43 46 39 56 42 212 47 77 2 174 8 215 14
282 38 281 38 356 -15 75 -53 113 -41 79 24 -9 18 -13 36 -10 41 10 16 48 11
80 -10 39 -26 65 -26 65 0 0 11 5 20 10 20 6 0 10 -4 10 -9 0 -10 54 -31 81
-31 14 0 19 7 19 30 0 28 2 30 40 30 29 0 42 5 50 20 10 19 19 20 128 16 118
-4 166 -15 213 -47 14 -10 37 -21 52 -24 15 -4 29 -11 32 -15 6 -10 100 -56
154 -75 24 -8 67 -15 96 -15 31 0 74 -9 111 -24 82 -34 134 -42 145 -25 8 12
11 11 20 -3 5 -10 16 -18 24 -18 22 0 163 -118 171 -143 8 -26 43 -71 101
-130 42 -43 82 -116 83 -149 0 -10 -9 -22 -19 -28 -26 -13 -35 -148 -11 -167
10 -9 11 -12 3 -13 -7 0 -13 -4 -13 -10 0 -5 6 -10 13 -10 15 -1 69 -88 62
-101 -4 -5 -28 -9 -55 -9 l-48 0 -6 -127 c-3 -71 -6 -136 -6 -145 -1 -10 -8
-18 -16 -18 -9 0 -1 -17 22 -47 20 -27 45 -67 55 -90 19 -44 41 -59 32 -22 -4
16 -2 20 8 17 21 -7 30 -89 13 -108 -9 -9 -14 -10 -14 -2 0 16 -57 44 -82 40
-18 -3 -32 -28 -55 -101 -4 -12 4 -28 21 -46 18 -19 29 -45 35 -82 10 -63 6
-78 -26 -90 -22 -8 -23 -12 -17 -61 4 -29 22 -95 39 -147 28 -79 31 -99 23
-129 -10 -35 -8 -64 11 -157 5 -27 10 -87 10 -133 1 -61 7 -101 26 -154 29
-82 28 -78 15 -78 -5 0 -10 9 -10 21 0 11 -4 17 -10 14 -5 -3 -10 -15 -10 -26
0 -10 -7 -19 -15 -19 -8 0 -15 -4 -15 -10 0 -5 5 -10 11 -10 5 0 7 -6 3 -12
-30 -47 -71 -378 -54 -427 3 -9 -4 -17 -20 -21 -32 -7 -37 -38 -16 -91 11 -26
16 -71 16 -136 0 -74 4 -106 19 -137 32 -68 43 -174 28 -266 -11 -68 -21 -79
-48 -55 l-22 20 7 -25 c4 -14 13 -47 20 -75 7 -27 21 -63 30 -80 22 -40 20
-53 -6 -57 -21 -3 -23 -8 -21 -50 2 -39 -1 -49 -17 -58 -24 -13 -25 -28 -4
-51 15 -17 15 -20 -5 -45 -12 -15 -21 -35 -21 -45 0 -10 -4 -21 -10 -24 -15
-9 -12 -47 5 -90 15 -33 14 -42 -1 -93 -21 -75 -65 -333 -58 -344 3 -5 -1 -15
-10 -21 -9 -7 -20 -37 -26 -67 -6 -30 -15 -59 -20 -64 -6 -6 -10 -20 -10 -33
0 -12 -13 -37 -28 -55 -44 -51 -72 -118 -72 -174 0 -55 -16 -124 -29 -124 -5
0 -12 -12 -16 -27 -3 -14 -15 -37 -25 -51 -11 -13 -22 -40 -26 -61 -4 -20 -15
-45 -24 -56 -10 -11 -24 -48 -30 -82 -8 -40 -21 -72 -36 -88 -13 -15 -24 -31
-24 -38 -1 -7 -14 -28 -30 -47 -17 -19 -30 -45 -30 -58 0 -32 -33 -86 -83
-137 -22 -22 -46 -54 -53 -71 -7 -17 -36 -56 -64 -87 -27 -30 -50 -60 -50 -66
0 -5 -9 -15 -20 -21 -11 -6 -20 -17 -20 -24 0 -7 -9 -21 -19 -30 -11 -10 -23
-32 -26 -50 -4 -17 -17 -47 -29 -66 -13 -19 -34 -53 -48 -76 -15 -23 -29 -63
-33 -90 -4 -27 -14 -60 -22 -73 -13 -20 -20 -22 -57 -17 -36 6 -47 2 -83 -24
-39 -28 -42 -35 -53 -102 -13 -77 -2 -144 26 -155 18 -7 18 -32 -1 -56 -7 -10
-19 -42 -25 -70 -7 -29 -18 -61 -25 -72 -7 -11 -15 -34 -19 -52 -4 -17 -29
-57 -57 -88 -27 -31 -49 -64 -49 -74 0 -9 -16 -36 -35 -58 -19 -23 -35 -44
-35 -47 0 -3 -13 -25 -30 -47 -16 -23 -32 -57 -36 -76 -5 -28 -14 -38 -40 -49
-19 -8 -34 -21 -34 -29 0 -8 -4 -15 -10 -15 -5 0 -10 -6 -10 -12 0 -7 -25 -42
-55 -78 -30 -36 -75 -95 -100 -132 -24 -37 -58 -74 -75 -83 -16 -8 -30 -19
-30 -24 0 -4 -16 -28 -35 -52 -19 -24 -35 -50 -35 -58 0 -13 -28 -44 -165
-185 -68 -70 -88 -91 -188 -208 -27 -32 -56 -58 -64 -58 -8 0 -27 -12 -42 -27
-15 -16 -37 -35 -51 -43 -13 -8 -33 -24 -44 -35 -25 -25 -69 -45 -97 -45 -12
0 -32 -9 -46 -20 -14 -11 -34 -20 -44 -20 -9 0 -31 -11 -47 -25 -17 -14 -38
-25 -48 -25 -11 0 -28 -7 -38 -15 -11 -8 -28 -15 -38 -15 -10 0 -26 -4 -36 -9
-9 -5 -62 -25 -117 -45 -78 -27 -127 -38 -220 -46 -66 -6 -147 -18 -179 -26
-65 -17 -120 -12 -148 13 -16 14 -23 14 -74 -2 -47 -15 -80 -17 -185 -13 -72
3 -131 2 -137 -4 -9 -9 -541 -15 -644 -6 -34 3 -65 11 -76 21 -10 9 -26 17
-35 17 -9 0 -31 9 -49 19 -18 11 -55 25 -83 32 -65 15 -85 26 -85 45 0 8 -17
22 -37 30 -21 9 -52 27 -70 40 -17 13 -40 24 -51 24 -11 0 -25 7 -32 16 -8 8
-45 37 -84 64 -39 27 -80 63 -91 80 -11 16 -26 30 -32 30 -7 0 -20 11 -29 25
-9 13 -23 27 -33 30 -35 11 -321 317 -321 344 0 5 -29 38 -65 73 -36 36 -65
71 -65 77 0 7 -11 27 -25 45 -14 18 -28 47 -31 65 -4 17 -15 36 -24 41 -10 5
-20 20 -24 34 -3 13 -21 37 -39 53 -64 56 -88 98 -94 163 l-6 61 -41 -6 c-51
-8 -62 3 -75 69 -5 26 -18 57 -29 69 -11 12 -27 39 -35 59 -15 36 -66 112
-104 153 -19 21 -39 67 -53 125 -8 31 -21 60 -77 172 -7 14 -13 44 -13 67 0
22 -6 44 -12 48 -22 14 -48 69 -48 101 0 16 -7 35 -15 42 -8 7 -15 23 -15 35
0 13 -16 43 -35 67 -50 62 -63 82 -108 173 -11 22 -30 53 -43 68 -13 16 -24
34 -24 40 0 7 -23 41 -50 76 -28 35 -50 70 -50 78 0 15 -134 152 -204 208 -20
17 -41 40 -46 53 -5 12 -16 22 -25 22 -8 0 -15 4 -15 9 0 5 -9 12 -19 16 -19
6 -61 89 -61 122 0 10 -11 34 -24 54 -24 35 -24 37 -9 83 12 37 13 52 4 72 -6
14 -11 36 -11 49 0 12 -16 42 -35 65 -19 23 -35 46 -35 51 0 5 -24 46 -53 92
-109 168 -165 263 -171 291 -4 16 -24 49 -45 73 -22 24 -56 78 -77 121 -21 42
-48 91 -60 107 -25 35 -33 58 -44 129 -8 49 -23 102 -41 139 -5 9 -25 106 -45
214 -25 136 -46 222 -69 278 -18 45 -35 108 -39 143 -7 73 -7 74 -61 137 l-40
46 0 115 c0 108 -1 116 -22 132 -23 17 -82 142 -83 174 0 9 -14 37 -30 61 -17
25 -30 56 -30 69 0 13 -12 40 -26 61 -14 21 -32 60 -40 87 -8 28 -21 74 -29
103 -23 77 -65 378 -65 460 0 40 7 95 16 122 9 29 18 105 21 185 3 74 10 146
15 159 8 23 9 23 28 6 10 -9 27 -15 37 -13 15 3 18 13 16 58 -1 36 -6 58 -17
66 -13 9 -16 30 -16 97 0 48 -9 133 -20 189 -25 127 -26 215 -4 239 21 23 9
42 -22 35 -31 -8 -31 9 1 30 28 18 33 44 10 44 -18 0 -18 -4 -1 45 13 37 16
39 50 37 36 -4 36 -3 36 37 0 33 4 41 18 41 10 0 37 14 60 31 23 17 42 28 42
25 0 -3 15 3 33 14 17 11 40 23 50 26 9 4 17 10 17 15 0 5 7 9 15 9 9 0 19 8
22 18 10 26 135 149 160 156 12 4 35 22 52 41 28 33 35 35 90 35 54 0 59 2 65
25 4 14 13 25 22 25 15 0 15 18 -2 97 -3 16 2 24 18 29 13 4 45 26 72 50 36
33 56 44 81 44 35 0 86 -22 105 -45 18 -22 31 -19 86 20 57 41 67 42 86 13 15
-22 18 -22 75 -10 88 18 277 16 293 -3 15 -17 41 -20 57 -4 6 6 53 14 104 19
114 11 498 1 475 -12 -26 -14 -20 -64 11 -93 33 -30 46 -31 123 -5 33 11 84
25 112 31 29 6 72 22 95 35 23 13 48 24 56 24 8 0 20 6 26 14 7 8 25 18 41 21
15 3 45 15 66 25 21 11 39 18 42 16 2 -2 -8 -24 -22 -48 -14 -23 -33 -57 -41
-75 -14 -30 -70 -73 -95 -73 -8 0 -28 -15 -46 -32 -19 -18 -50 -50 -71 -71
-21 -20 -43 -37 -49 -37 -6 0 -18 -7 -25 -16 -7 -9 -22 -20 -34 -25 -30 -13
-50 -29 -107 -81 -29 -27 -60 -48 -70 -48 -10 0 -21 -8 -24 -17 -14 -42 -38
-81 -49 -77 -6 3 -20 -4 -30 -16 -10 -11 -25 -20 -33 -20 -26 0 -86 -24 -98
-39 -6 -7 -32 -21 -59 -30 -65 -22 -71 -41 -12 -41 25 0 47 4 49 9 2 5 48 15
103 21 55 7 103 16 106 21 4 6 16 5 33 -2 21 -10 34 -10 60 -1 19 7 58 13 87
13 30 0 83 1 119 2 l65 2 43 -65 c24 -36 48 -66 53 -68 5 -2 21 6 36 17 18 15
30 18 37 11 5 -5 16 -10 23 -10 8 0 27 -10 43 -21 41 -31 60 -20 60 35 0 33 4
45 18 49 9 2 25 8 35 12 13 5 17 2 17 -13 0 -12 4 -23 9 -26 4 -3 11 -24 14
-47 6 -42 52 -99 82 -99 7 0 32 23 55 50 42 51 43 52 37 113 -4 46 -11 66 -26
78 -16 13 -19 24 -15 48 9 42 49 85 74 78 16 -4 18 -2 11 11 -6 10 -5 24 1 36
6 10 8 39 5 63 -4 40 -2 45 23 58 42 22 130 128 130 158 0 36 10 57 26 57 9 0
14 12 14 35 0 23 5 35 13 35 8 0 22 9 32 20 17 19 18 25 6 63 -21 70 -25 107
-10 107 36 0 64 61 38 87 -10 10 2 82 21 128 27 62 22 115 -15 161 -20 25 -30
29 -77 29 -61 1 -78 9 -78 34 0 10 -15 30 -32 44 -18 13 -49 41 -68 62 -93
101 -98 105 -128 105 -39 0 -62 -23 -62 -61 l0 -30 -31 16 c-16 9 -32 24 -35
33 -3 9 -10 25 -15 34 -14 28 -11 58 11 85 32 40 26 62 -8 30 -15 -15 -34 -27
-41 -27 -7 0 -26 -14 -43 -32 l-30 -32 -46 19 c-35 14 -67 18 -127 17 -44 -2
-151 -2 -237 -2 -151 0 -158 0 -158 -19 0 -25 21 -36 80 -46 25 -4 83 -27 130
-51 92 -46 140 -62 140 -46 0 6 -6 12 -12 15 -7 2 -10 8 -6 12 11 11 82 -23
109 -51 l22 -23 -36 -21 c-20 -12 -42 -34 -48 -50 -13 -27 -13 -28 -52 -14
-21 7 -50 23 -64 34 -14 11 -32 20 -41 20 -8 0 -30 10 -49 21 -30 19 -40 20
-71 11 -126 -36 -181 -41 -227 -20 -21 10 -31 9 -54 -5 -16 -9 -31 -14 -35
-10 -3 4 -50 12 -104 18 -104 13 -337 4 -402 -15 -19 -5 -68 -13 -110 -16 -73
-6 -76 -5 -115 26 -22 17 -42 41 -45 53 -4 16 -15 23 -38 25 -20 2 -32 9 -32
18 0 17 7 18 -109 -6 -107 -22 -152 -38 -213 -76 -22 -14 -42 -23 -45 -21 -7
8 38 106 71 157 16 25 100 116 186 203 124 125 161 157 183 157 20 0 33 9 51
38 32 49 73 88 116 106 19 8 29 15 21 16 -26 0 10 29 53 42 52 15 66 25 83 66
14 34 65 72 97 72 10 0 61 14 113 30 113 36 125 37 159 5 34 -32 88 -34 104
-5 6 11 18 20 28 20 29 1 121 36 142 55 13 12 27 15 44 11 23 -6 102 8 136 23
8 4 29 4 45 0 17 -4 66 -7 110 -8 69 -1 82 2 92 18 7 10 27 26 44 35 l33 16
52 -51 c35 -34 58 -50 68 -46 21 8 20 30 -5 79 -16 31 -18 46 -11 62 6 12 13
29 16 39 3 9 14 17 24 17 28 0 108 39 356 173 27 15 56 27 65 27 22 0 82 37
103 63 22 27 23 70 3 87 -14 11 -11 16 22 36 21 13 45 27 53 30 8 4 32 18 52
31 21 13 44 23 52 23 7 0 19 7 26 15 7 8 17 15 23 15 5 0 3 -8 -6 -18 -19 -20
-23 -52 -7 -52 6 0 10 9 10 20 0 26 36 40 101 40 52 0 131 34 164 70 9 10 54
42 99 71 44 29 104 67 132 85 27 19 100 50 161 69 61 19 113 39 115 43 3 7
146 75 252 119 123 52 257 63 514 43z m769 -256 c-3 -3 -12 -4 -19 -1 -8 3 -5
6 6 6 11 1 17 -2 13 -5z m1908 -574 c4 -7 23 -8 49 -5 33 5 47 2 69 -15 32
-26 34 -36 7 -43 -24 -6 -27 -45 -5 -53 18 -7 20 -24 2 -24 -7 0 -21 15 -29
34 -11 22 -35 44 -72 66 -55 31 -71 50 -42 50 8 0 18 -5 21 -10z m275 -230
c13 -8 13 -10 -2 -10 -9 0 -20 5 -23 10 -8 13 5 13 25 0z m-620 -935 c14 -8
36 -14 50 -15 14 0 31 -9 38 -20 9 -15 23 -20 56 -20 25 0 48 -5 51 -10 4 -6
10 -8 15 -5 5 3 11 1 15 -5 3 -5 14 -10 24 -10 11 0 29 -9 42 -20 l24 -19 -32
-1 c-17 0 -35 5 -38 10 -3 6 -13 10 -22 10 -9 0 -25 8 -36 18 -12 11 -36 17
-66 18 -25 0 -59 4 -74 9 -18 5 -33 3 -40 -4 -19 -19 -29 -12 -22 18 5 23 2
32 -17 45 -29 20 -3 21 32 1z m-4672 -197 c27 -24 65 -55 84 -70 39 -30 68
-82 68 -123 0 -25 -3 -27 -27 -20 -30 7 -193 95 -232 124 -20 15 -22 21 -12
40 l12 22 27 -29 c32 -34 92 -66 141 -76 29 -5 32 -4 21 9 -7 8 -30 20 -51 25
-24 7 -46 21 -56 38 -10 15 -25 34 -35 43 -13 12 -14 19 -6 27 9 9 5 12 -17
12 -23 0 -27 3 -15 10 27 18 49 10 98 -32z m3130 -55 c6 -10 13 -33 17 -50 l7
-33 -65 0 c-35 0 -66 3 -70 6 -10 10 22 51 56 73 39 25 44 26 55 4z m-3528
-186 c30 -15 40 -57 14 -57 -10 0 -37 9 -61 21 -39 19 -43 24 -43 58 0 52 9
56 39 21 14 -17 37 -37 51 -43z m-2243 -324 c-3 -10 -5 -4 -5 12 0 17 2 24 5
18 2 -7 2 -21 0 -30z m-69 -111 c-3 -31 -3 -31 -26 -14 -21 16 -21 19 -6 40
20 30 37 16 32 -26z m9979 -954 c-7 -87 -20 -163 -34 -198 -10 -23 -11 -22
-18 22 -5 35 -2 70 14 131 11 45 21 90 21 100 0 9 5 17 11 17 8 0 9 -23 6 -72z
m-272 -299 c22 -6 52 -20 67 -30 31 -22 78 -115 89 -174 4 -22 15 -67 24 -100
25 -90 36 -191 24 -218 -6 -14 -7 -36 -2 -55 8 -33 1 -214 -12 -289 -9 -55
-26 -55 -80 -4 -22 21 -60 49 -85 62 -25 13 -48 29 -53 36 -11 17 -66 43 -92
43 -31 0 -41 -16 -49 -78 -4 -29 -11 -64 -17 -78 -8 -23 -13 -25 -44 -20 -19
3 -51 9 -70 12 -19 3 -38 10 -41 15 -3 5 -14 9 -26 9 -18 0 -19 4 -14 38 4 20
16 43 27 51 10 7 19 24 19 37 0 17 8 27 24 33 13 5 26 20 29 33 10 34 8 86 -2
93 -22 13 -61 100 -61 135 0 20 -5 51 -11 69 -6 18 -8 51 -5 76 l7 44 48 -2
c55 -2 77 11 86 54 4 17 37 61 81 106 41 43 74 83 74 89 0 26 11 28 65 13z
m-10142 -994 c14 -82 29 -202 33 -265 6 -105 5 -120 -14 -156 -43 -84 -51
-194 -21 -291 7 -23 10 -46 5 -50 -14 -14 -45 41 -56 102 -14 78 -34 386 -31
495 4 172 31 344 51 324 5 -5 20 -76 33 -159z m9846 -164 c17 -21 31 -47 31
-58 0 -10 4 -23 9 -28 4 -6 16 -32 24 -59 16 -46 16 -50 -2 -75 -10 -14 -22
-42 -26 -61 -11 -50 -21 -66 -61 -97 l-36 -27 -18 22 c-13 15 -18 39 -18 79 0
70 -9 95 -69 180 -34 47 -31 105 4 129 28 18 72 31 110 33 14 1 32 -13 52 -38z
m-267 -760 c24 -10 49 -26 57 -35 7 -9 18 -16 23 -16 5 0 20 -11 34 -24 l26
-23 -26 -41 c-14 -23 -39 -48 -55 -56 -27 -14 -30 -14 -58 12 -17 15 -34 38
-39 52 -6 20 -13 150 -7 150 1 0 21 -8 45 -19z m293 -3966 c0 -18 -52 -18 -59
0 -5 13 0 16 27 13 17 -2 32 -7 32 -13z m1413 -200 c-3 -3 -9 2 -12 12 -6 14
-5 15 5 6 7 -7 10 -15 7 -18z m44 -52 c19 -17 26 -83 8 -83 -5 0 -10 9 -10 19
0 11 -4 22 -9 25 -10 6 -21 56 -13 56 3 0 14 -7 24 -17z m47 -361 c1 -13 -3
-20 -9 -17 -5 3 -10 25 -9 48 1 36 2 38 9 17 4 -14 8 -35 9 -48z m944 38 c24
-16 50 -37 58 -47 9 -12 4 -10 -15 5 -16 12 -43 22 -61 22 -59 0 -155 13 -155
21 0 6 71 23 117 28 7 0 32 -12 56 -29z m-10813 -15 c0 -13 5 -27 10 -30 23
-14 10 -67 -25 -101 -19 -18 -35 -39 -35 -48 0 -8 -4 -17 -9 -21 -17 -10 -28
26 -23 71 3 32 1 44 -9 44 -10 0 -10 3 -1 12 7 7 12 19 12 27 0 19 60 82 72
75 4 -3 8 -16 8 -29z m10584 -81 c7 -18 0 -34 -15 -34 -5 0 -9 11 -9 25 0 28
15 34 24 9z m36 -184 c0 -11 -7 -20 -15 -20 -8 0 -15 9 -15 20 0 11 7 20 15
20 8 0 15 -9 15 -20z m350 -5 c10 -12 9 -16 -5 -21 -19 -8 -40 9 -31 25 10 15
21 14 36 -4z m-10960 -35 c0 -5 -4 -10 -10 -10 -5 0 -10 5 -10 10 0 6 5 10 10
10 6 0 10 -4 10 -10z m10270 -73 c0 -27 29 -79 57 -102 18 -15 27 -37 37 -96
7 -42 17 -82 21 -89 8 -14 8 -13 -48 15 -31 16 -42 17 -58 7 -24 -16 -24 -7 1
25 12 16 20 41 20 65 0 33 -4 40 -27 49 -49 19 -62 37 -52 72 5 18 9 52 9 77
l0 45 20 -25 c11 -14 20 -33 20 -43z m149 4 c-14 -22 -56 -50 -44 -29 14 23
38 48 47 48 4 0 3 -8 -3 -19z m-2785 -159 c40 -77 19 -152 -38 -138 -15 4 -31
17 -36 30 -5 13 -14 26 -21 28 -22 7 45 108 73 108 4 0 14 -13 22 -28z m3050
-178 c26 -26 19 -35 -21 -28 -49 9 -52 13 -29 30 25 18 31 18 50 -2z m-673
-51 c-17 -32 -40 -58 -41 -47 0 11 38 64 46 64 3 0 0 -8 -5 -17z m159 -121 c0
-11 -81 -72 -97 -72 -7 0 -13 3 -13 7 0 14 44 53 61 53 10 0 21 5 24 10 7 12
25 13 25 2z m510 -92 c14 -11 31 -20 38 -20 7 0 10 -4 7 -10 -11 -17 -54 -11
-75 10 -12 12 -18 25 -15 30 9 14 17 12 45 -10z m-490 -1096 c13 -33 13 -64 0
-64 -6 0 -13 14 -17 30 -3 17 -10 33 -14 36 -11 6 -2 24 12 24 5 0 14 -12 19
-26z"/>
<path d="M8130 9916 c-11 -29 -40 -38 -56 -17 -10 12 -13 11 -23 -7 -9 -17 -7
-28 10 -57 25 -41 22 -47 -21 -49 -17 -1 -35 -8 -40 -16 -8 -12 -10 -11 -10 6
0 25 -20 36 -41 24 -8 -6 -16 -4 -21 3 -6 9 -10 8 -17 -2 -8 -12 -12 -12 -25
-2 -9 7 -23 11 -31 7 -23 -8 -18 -44 10 -72 14 -14 25 -28 25 -32 0 -8 87 -91
134 -127 20 -15 36 -33 36 -40 0 -13 44 -67 102 -124 29 -28 39 -47 44 -83 4
-26 13 -53 20 -59 8 -6 14 -16 14 -22 0 -15 51 -67 66 -67 6 0 18 -10 26 -21
12 -19 16 -20 35 -9 19 12 26 9 71 -28 27 -23 53 -42 57 -42 4 0 20 -9 35 -20
15 -11 39 -20 52 -21 12 0 57 -1 98 -2 41 -1 83 2 93 6 12 5 17 3 17 -7 0 -7
7 -17 16 -20 28 -11 35 -7 24 14 -7 13 -7 20 -1 20 6 0 15 -9 21 -20 6 -10 28
-25 50 -31 22 -7 40 -16 40 -21 0 -4 6 -8 13 -8 8 0 19 -19 26 -42 28 -96 35
-114 66 -157 66 -93 105 -191 70 -177 -10 3 -15 -1 -15 -13 0 -10 -7 -24 -15
-31 -9 -7 -14 -19 -11 -27 3 -7 -3 -33 -14 -58 -16 -36 -24 -45 -45 -45 -14 0
-25 -4 -25 -8 0 -4 -24 -16 -54 -26 -42 -15 -68 -17 -125 -11 -39 4 -68 11
-65 16 3 5 -1 9 -8 9 -7 0 -25 6 -39 14 -37 19 -95 26 -248 28 -96 1 -136 -2
-139 -10 -2 -7 -15 -12 -29 -12 -14 0 -40 -7 -59 -16 -53 -25 -159 -129 -183
-179 -12 -25 -25 -45 -30 -45 -5 0 -23 -22 -40 -50 -17 -27 -36 -50 -42 -50
-6 0 -9 -6 -6 -14 4 -10 -8 -20 -39 -32 -24 -9 -44 -23 -44 -30 0 -16 -26 -19
-35 -4 -4 6 -16 4 -31 -6 -21 -14 -27 -13 -26 6 0 3 -33 4 -74 2 -54 -3 -83 0
-108 12 -19 9 -48 16 -65 16 -30 0 -111 44 -111 61 0 4 -9 11 -21 14 -11 4
-62 46 -114 95 -142 133 -212 177 -326 202 -62 14 -71 14 -180 -9 -63 -13
-129 -33 -148 -44 -65 -39 -237 -27 -283 19 -8 8 -8 12 -2 12 15 0 1 75 -25
133 -22 51 -28 117 -11 117 6 0 10 9 10 19 0 13 9 21 30 26 39 9 45 21 25 51
-25 38 -12 122 20 130 12 3 35 23 51 45 31 41 44 48 44 24 0 -8 5 -15 10 -15
6 0 10 14 10 30 0 25 4 30 25 30 14 0 25 5 25 12 0 6 7 4 18 -5 10 -10 29 -17
42 -17 13 0 38 -5 56 -12 25 -9 42 -8 79 2 43 12 50 18 72 64 26 55 33 70 51
101 39 66 39 103 0 155 -19 26 -20 33 -9 54 10 17 11 41 5 87 -5 35 -7 117 -5
183 3 129 1 124 97 251 23 30 23 31 4 43 -25 16 -57 15 -64 0 -4 -7 -4 -3 -2
10 4 21 1 22 -58 22 -62 0 -106 -18 -106 -43 0 -14 -46 -65 -76 -85 -16 -11
-16 -12 -1 -8 21 6 23 -10 2 -18 -8 -3 -12 -12 -9 -21 4 -10 0 -15 -10 -15 -9
0 -16 -6 -16 -13 0 -7 -14 -23 -31 -36 -29 -22 -30 -25 -25 -82 3 -47 1 -59
-10 -59 -8 0 -17 -13 -21 -30 -4 -21 -13 -32 -29 -36 -13 -3 -22 -10 -19 -15
3 -4 3 -20 -1 -34 -4 -18 -13 -25 -30 -25 -18 0 -24 -6 -24 -21 0 -16 -18 -29
-83 -59 -74 -35 -89 -47 -146 -117 -35 -43 -75 -103 -89 -133 -14 -30 -32 -63
-40 -73 -8 -9 -19 -36 -23 -60 -5 -23 -13 -67 -19 -97 -10 -57 -9 -74 16 -245
20 -138 85 -275 158 -337 51 -44 95 -68 125 -68 9 0 30 -7 46 -16 17 -9 50
-17 75 -17 25 -1 47 -5 50 -9 3 -3 25 3 48 13 36 17 41 23 32 34 -17 20 16 33
41 16 16 -9 19 -8 19 10 0 12 5 19 12 17 7 -3 19 9 28 26 22 44 65 56 184 51
88 -4 103 -7 125 -29 15 -14 42 -26 66 -29 22 -2 55 -11 74 -18 46 -19 191
-168 191 -196 0 -13 5 -23 11 -23 6 0 28 -13 48 -28 34 -27 84 -53 161 -83 55
-22 267 -18 360 6 41 11 80 24 87 30 6 5 30 23 52 39 25 18 43 40 46 58 4 15
13 28 21 28 8 0 14 9 14 21 0 15 5 19 22 17 16 -2 24 5 33 32 8 23 18 34 29
32 10 -2 16 4 16 15 1 22 23 53 39 53 6 0 11 4 11 9 0 5 16 12 35 15 19 4 35
11 35 16 0 5 21 8 48 8 81 -1 140 16 173 50 26 26 35 30 67 25 20 -3 41 -10
46 -14 6 -5 25 -9 44 -9 29 0 42 -9 80 -50 29 -32 53 -50 68 -50 13 0 26 -5
30 -11 5 -8 37 -10 110 -6 110 7 180 30 239 78 17 14 54 40 83 59 31 21 55 45
59 60 3 14 17 39 30 56 26 35 30 82 8 90 -24 10 -17 27 8 20 21 -5 24 0 38 57
35 150 -43 390 -183 567 -99 124 -164 167 -363 237 -118 42 -155 68 -201 140
-19 30 -42 57 -52 60 -20 8 -58 54 -54 66 5 16 -20 48 -44 57 -26 10 -33 30
-9 30 17 0 20 16 5 33 -6 7 -17 21 -24 32 -12 16 -16 17 -30 6 -14 -12 -16
-11 -16 6 0 16 -7 19 -37 17 -21 0 -47 -5 -57 -9 -13 -6 -23 -3 -33 11 -10 13
-16 16 -21 7 -5 -8 -13 -9 -22 -3 -8 6 -43 10 -78 10 -46 0 -64 4 -68 15 -9
22 -23 18 -34 -9z m137 -32 c-3 -3 -12 -4 -19 -1 -8 3 -5 6 6 6 11 1 17 -2 13
-5z m253 -24 c0 -5 -4 -10 -10 -10 -5 0 -10 5 -10 10 0 6 5 10 10 10 6 0 10
-4 10 -10z m-420 -20 c0 -5 -4 -10 -10 -10 -5 0 -10 5 -10 10 0 6 5 10 10 10
6 0 10 -4 10 -10z"/>
<path d="M10325 7213 c36 -89 39 -103 27 -115 -11 -11 -17 -8 -32 12 -11 14
-20 30 -20 36 0 6 -7 18 -17 25 -15 13 -16 10 -9 -29 3 -24 7 -46 7 -50 3 -21
-2 -42 -10 -42 -6 0 -13 21 -16 48 -15 108 -45 156 -44 70 1 -36 -6 -65 -19
-88 -11 -19 -20 -52 -20 -72 -1 -32 6 -45 56 -95 31 -32 67 -80 80 -105 12
-25 29 -52 38 -59 21 -17 70 -116 78 -158 l6 -34 -64 61 c-35 34 -73 62 -84
62 -15 0 -22 9 -27 30 -4 17 -12 36 -19 43 -12 11 -24 41 -66 162 l-17 50 -5
-50 c-3 -33 0 -55 9 -66 15 -18 18 -95 4 -104 -5 -3 -11 5 -13 17 -2 17 -13
25 -41 31 -25 6 -50 23 -77 54 -40 45 -50 49 -30 12 8 -15 7 -19 -4 -19 -8 0
-16 -6 -19 -12 -3 -9 -14 -4 -32 15 -22 21 -31 25 -41 16 -10 -8 -14 -8 -14
-1 0 17 -39 34 -79 34 -20 0 -41 4 -48 10 -8 7 -22 5 -44 -6 -24 -12 -36 -13
-51 -5 -16 8 -23 8 -29 -2 -6 -11 -12 -10 -28 5 -11 10 -27 15 -38 12 -11 -3
-28 1 -39 9 -22 17 -38 20 -29 5 10 -16 -11 -12 -25 5 -15 18 -110 21 -127 4
-8 -8 -22 -5 -49 9 -22 10 -82 25 -134 32 -51 7 -112 19 -134 26 -34 12 -41
12 -56 -1 -19 -17 -37 -19 -42 -5 -2 7 -15 6 -36 -2 -30 -12 -35 -11 -48 6
-12 17 -17 18 -38 7 -17 -10 -29 -10 -43 -2 -11 5 -23 8 -26 4 -4 -3 -13 0
-22 7 -10 8 -15 9 -15 1 0 -15 -33 -14 -48 1 -10 10 -17 10 -32 0 -13 -8 -33
-9 -67 -3 -26 5 -80 12 -119 16 -61 6 -76 4 -110 -14 -45 -24 -65 -26 -83 -8
-11 10 -14 10 -18 0 -3 -7 -13 -13 -24 -13 -11 0 -22 -6 -25 -14 -4 -10 -16
-12 -43 -9 -20 3 -53 1 -72 -5 -21 -5 -42 -6 -51 -1 -11 6 -18 4 -22 -6 -3 -9
-19 -15 -38 -15 -18 -1 -51 -7 -73 -15 -22 -8 -56 -15 -75 -15 -19 0 -48 -7
-64 -15 -21 -11 -32 -12 -42 -4 -7 6 -18 8 -23 4 -6 -3 -24 4 -40 16 -16 12
-33 19 -38 16 -5 -3 -42 -1 -81 4 -45 6 -84 7 -106 1 -28 -8 -38 -6 -65 15
-27 22 -36 24 -59 14 -17 -7 -40 -8 -64 -2 -28 6 -42 5 -58 -6 -19 -13 -23
-13 -40 2 -23 21 -56 12 -65 -16 l-7 -21 -22 21 c-27 25 -36 26 -36 4 0 -13
-3 -14 -12 -5 -15 15 -32 16 -23 2 7 -12 -8 -14 -19 -3 -17 17 -80 8 -103 -14
-18 -19 -26 -21 -48 -13 -15 6 -37 10 -51 10 -13 0 -24 5 -24 10 0 15 -21 12
-40 -5 -25 -22 -122 -46 -137 -33 -15 12 -33 2 -33 -18 0 -8 -4 -14 -10 -14
-5 0 -10 5 -10 10 0 17 -24 11 -64 -16 -22 -15 -41 -22 -45 -17 -9 15 -59 24
-66 13 -3 -5 -21 -10 -40 -10 -18 0 -35 -5 -37 -11 -2 -6 -14 -5 -33 5 -27 14
-31 14 -50 -4 -16 -15 -29 -18 -57 -14 -30 5 -39 3 -50 -15 -7 -11 -19 -21
-26 -21 -7 0 -21 -6 -32 -12 -16 -10 -24 -10 -38 0 -33 24 -44 25 -102 7 -54
-16 -60 -17 -109 0 -29 9 -58 14 -66 11 -8 -3 -19 3 -24 12 -6 9 -11 12 -11 5
0 -8 -6 -8 -25 0 -14 7 -25 15 -25 20 0 4 -9 7 -19 7 -11 0 -23 5 -26 10 -3 6
-24 10 -46 10 -42 0 -57 16 -44 48 6 15 8 15 25 -6 26 -32 37 -21 38 35 1 29
7 52 16 58 12 9 9 17 -15 50 -26 34 -27 40 -14 55 8 9 15 20 15 23 0 13 -27 7
-40 -8 -8 -9 -30 -15 -56 -15 -32 0 -44 4 -44 15 0 18 -12 19 -27 4 -17 -17
-100 -38 -110 -28 -6 6 -14 4 -23 -6 -7 -8 -18 -15 -24 -15 -6 0 -16 -10 -21
-22 -6 -12 -23 -25 -39 -29 -44 -12 -66 -38 -66 -77 0 -28 -3 -33 -16 -28 -11
4 -22 -1 -31 -14 -10 -15 -21 -19 -35 -14 -17 5 -20 3 -15 -10 4 -11 1 -16
-12 -16 -30 0 -41 -44 -41 -168 1 -109 2 -115 16 -89 19 35 49 35 77 1 36 -44
72 -77 118 -110 24 -17 51 -44 59 -60 8 -16 32 -49 53 -74 55 -64 57 -68 57
-84 0 -8 9 -18 20 -21 28 -9 80 -54 80 -69 0 -23 34 -44 82 -51 43 -7 47 -9
53 -43 4 -20 15 -53 26 -74 15 -30 17 -43 9 -58 -10 -18 -9 -20 12 -15 18 4
26 0 36 -22 6 -15 12 -36 12 -46 0 -11 11 -32 25 -49 17 -20 23 -37 19 -52 -3
-14 2 -31 15 -48 11 -14 28 -47 37 -74 24 -73 45 -114 55 -109 5 3 11 -7 15
-22 4 -15 12 -35 19 -43 19 -24 53 -132 53 -169 1 -18 7 -40 15 -50 8 -9 23
-36 34 -61 11 -25 27 -51 36 -59 10 -7 17 -19 17 -25 1 -6 9 -29 20 -51 11
-22 19 -44 20 -50 0 -5 9 -25 21 -44 14 -24 23 -31 28 -22 5 7 11 -6 14 -33 4
-27 19 -63 37 -87 16 -23 30 -54 30 -68 0 -14 4 -30 8 -36 13 -18 51 -35 77
-35 14 0 30 -9 37 -20 7 -11 20 -20 29 -20 8 0 25 -9 37 -20 12 -11 26 -20 32
-20 5 0 10 -7 10 -15 0 -13 93 -65 117 -65 4 0 24 -17 43 -37 29 -31 104 -85
174 -125 33 -19 156 -66 188 -72 20 -4 39 -14 42 -22 4 -10 13 -14 22 -10 9 3
21 3 27 -1 7 -4 24 -6 39 -4 16 1 28 -2 28 -8 0 -16 33 -46 55 -49 77 -11 97
-16 102 -28 8 -22 96 -18 138 6 20 11 40 20 45 20 18 0 10 -22 -10 -27 -24 -6
-26 -29 -4 -51 16 -15 19 -14 44 16 19 23 35 32 58 32 35 0 49 -15 33 -34 -11
-13 -5 -46 8 -46 3 0 15 18 25 40 11 22 23 40 27 40 4 0 15 7 24 16 9 9 37 19
62 22 l45 5 -6 -44 c-4 -24 -9 -56 -12 -71 -6 -30 6 -37 25 -14 13 16 12 186
-1 186 -5 0 -8 11 -8 24 0 15 7 26 20 29 27 7 25 18 -9 56 l-30 33 -45 -31
c-59 -41 -70 -40 -52 4 8 19 13 35 11 35 -5 0 -72 -29 -97 -41 -15 -8 -18 -5
-18 18 0 20 -3 24 -9 14 -5 -7 -14 -11 -19 -7 -7 4 -4 19 10 44 37 64 46 71
86 65 21 -3 39 -9 42 -12 7 -8 26 -12 87 -15 48 -3 55 -1 67 21 11 22 14 23
25 9 8 -9 24 -16 36 -16 18 0 24 -7 27 -29 2 -17 0 -37 -5 -46 -8 -15 -6 -15
22 -1 36 19 61 21 61 4 0 -19 -79 -108 -96 -108 -8 0 -14 -4 -14 -10 0 -9 33
-15 72 -12 17 1 32 -24 23 -38 -3 -5 -1 -11 5 -15 5 -3 10 -25 10 -48 0 -58
11 -117 21 -117 18 0 29 42 32 126 2 64 -1 92 -10 99 -14 11 -21 85 -9 103 4
7 15 12 24 12 9 0 31 9 47 20 38 25 48 25 40 1 -4 -14 0 -20 19 -25 29 -7 57
3 111 39 l39 27 51 -25 50 -25 20 40 c23 47 31 54 50 38 12 -10 18 -10 31 1
14 11 18 10 30 -6 13 -17 15 -17 32 -2 23 21 32 21 32 2 0 -18 12 -19 27 -4 6
6 45 13 87 16 75 6 79 5 102 -21 15 -15 24 -36 22 -48 -4 -28 -28 -36 -28 -9
0 12 -3 21 -6 21 -3 0 -30 -20 -58 -45 -29 -25 -58 -45 -65 -45 -6 0 -11 -4
-11 -9 0 -5 -9 -11 -19 -14 -11 -2 -28 -22 -39 -44 -26 -49 -46 -66 -70 -59
-12 4 -25 -1 -37 -14 -18 -20 -18 -20 46 -21 63 -1 63 -1 34 -15 -16 -7 -40
-11 -52 -9 -16 4 -23 1 -23 -10 0 -12 13 -15 58 -15 45 -1 53 -3 39 -11 -14
-8 -15 -14 -7 -24 8 -9 8 -15 0 -20 -13 -8 -13 -25 1 -25 6 0 13 9 16 20 6 23
21 25 47 5 10 -8 22 -13 25 -11 9 6 207 44 264 51 26 4 45 10 42 16 -4 5 0 9
7 9 7 0 26 7 42 15 19 10 33 12 41 5 8 -7 24 -4 52 10 22 10 69 29 104 41 35
12 69 26 75 30 6 5 14 6 17 3 3 -4 14 1 23 10 11 11 29 16 51 14 29 -2 39 3
58 26 19 24 26 27 38 18 11 -10 23 -5 61 25 25 21 46 43 46 50 0 15 32 33 59
33 11 0 26 6 34 14 8 8 24 12 35 10 11 -3 29 -1 39 5 17 9 22 5 36 -25 l17
-34 -27 6 c-22 6 -25 4 -20 -9 5 -13 -4 -22 -35 -38 -30 -15 -37 -24 -29 -32
8 -8 19 -8 41 0 16 6 39 9 50 6 22 -6 28 12 8 20 -7 3 -3 6 8 6 12 1 27 -6 34
-14 12 -14 15 -14 32 2 14 13 21 14 30 5 7 -7 20 -12 29 -12 12 0 16 -8 15
-24 0 -14 -6 -22 -13 -19 -8 3 -13 -3 -13 -15 0 -14 -9 -21 -31 -26 -24 -4
-30 -10 -25 -22 4 -9 0 -24 -8 -33 -8 -9 -17 -47 -20 -91 l-6 -75 17 38 c10
24 22 37 34 37 22 0 24 11 7 28 -9 9 -7 12 9 12 13 0 23 8 27 23 8 31 72 101
85 92 7 -4 11 8 11 33 0 33 3 39 18 36 9 -2 22 -1 27 3 18 14 45 71 45 95 0
14 9 33 20 43 15 14 17 20 8 26 -23 15 2 22 28 9 22 -12 27 -12 34 0 14 22 13
26 -16 45 -24 16 -26 21 -21 66 3 27 15 70 27 95 23 54 25 101 5 128 -23 31
-18 37 25 31 44 -5 48 -1 23 27 -16 17 -16 20 0 35 16 16 15 19 -11 39 -30 24
-23 46 8 26 33 -20 41 -14 38 27 -1 22 4 47 12 56 7 9 15 28 16 43 5 48 10 71
17 78 4 4 7 16 7 26 0 10 4 18 9 18 15 0 63 162 69 230 3 41 14 80 29 107 27
49 20 77 -20 85 -21 4 -25 0 -35 -41 -21 -88 -24 -128 -11 -150 17 -27 4 -39
-20 -17 -12 11 -27 15 -42 11 -13 -3 -30 -1 -38 4 -11 7 -11 12 2 32 17 23 14
62 -5 86 -7 8 1 25 23 52 26 33 30 43 20 55 -16 19 0 113 29 170 10 22 16 44
13 49 -3 6 -1 7 5 3 8 -5 12 0 12 13 0 11 4 22 9 25 5 3 15 45 22 93 7 49 14
80 16 71 6 -25 33 -10 33 18 0 13 5 24 11 24 6 0 24 13 40 30 22 21 29 36 24
50 -5 14 -2 20 9 20 18 0 22 35 6 45 -19 11 -10 34 18 47 31 15 32 45 4 88
-20 30 -52 99 -52 111 0 5 13 9 28 9 33 0 62 27 62 56 0 11 5 25 12 32 9 9 8
16 -5 30 -20 21 -13 32 19 32 54 0 68 29 39 80 -19 34 -19 60 3 77 12 11 14
16 4 20 -14 5 -46 63 -36 63 4 0 16 -7 26 -17 10 -9 21 -13 25 -10 11 12 -30
76 -85 133 -50 51 -55 54 -67 37 -13 -17 -14 -17 -33 0 -11 10 -28 17 -37 15
-12 -2 -25 13 -43 49 -15 29 -31 53 -36 53 -4 0 -5 -8 -1 -17z m-4825 -173 c0
-5 -4 -10 -10 -10 -5 0 -10 5 -10 10 0 6 5 10 10 10 6 0 10 -4 10 -10z m4740
-35 c0 -14 -4 -25 -10 -25 -5 0 -10 11 -10 25 0 14 5 25 10 25 6 0 10 -11 10
-25z m-5032 -13 c6 -18 -15 -14 -22 4 -4 10 -1 14 6 12 6 -2 14 -10 16 -16z
m5072 -62 c0 -5 -4 -10 -10 -10 -5 0 -10 5 -10 10 0 6 5 10 10 10 6 0 10 -4
10 -10z m276 -92 c30 -59 31 -72 3 -58 -22 13 -59 89 -59 123 1 22 1 22 16 2
9 -11 26 -41 40 -67z m-5574 -40 c-7 -7 -12 -8 -12 -2 0 14 12 26 19 19 2 -3
-1 -11 -7 -17z m4008 -73 c48 -25 87 -88 113 -180 l13 -50 22 49 c12 26 36 65
52 85 43 51 45 54 53 74 4 10 11 15 17 12 5 -3 10 1 10 9 0 22 12 20 44 -5 15
-11 33 -18 41 -15 8 3 17 1 20 -3 2 -5 19 -11 37 -15 18 -3 46 -17 62 -31 16
-14 32 -25 36 -25 6 0 30 -44 59 -109 16 -34 -19 -281 -46 -335 -15 -28 -16
-29 -80 -22 -87 9 -114 22 -207 101 -95 79 -115 91 -121 73 -38 -108 -50 -131
-98 -178 l-51 -50 -141 6 c-77 4 -151 11 -165 18 -13 6 -38 30 -55 53 -16 23
-33 42 -37 42 -3 1 -13 -20 -22 -45 -25 -75 -62 -130 -98 -147 -43 -20 -161
-35 -346 -43 -180 -8 -216 0 -254 56 -15 22 -31 40 -35 40 -5 0 -18 -23 -30
-50 -18 -42 -27 -50 -60 -59 -86 -23 -259 -41 -386 -41 l-136 0 -34 43 c-19
23 -47 66 -62 96 l-27 54 -41 -48 c-42 -47 -43 -47 -122 -55 -44 -5 -95 -14
-113 -21 -50 -17 -104 2 -161 59 -68 69 -91 144 -92 310 -1 70 -4 113 -8 95
-3 -18 -19 -41 -35 -54 -17 -13 -45 -57 -67 -106 -34 -72 -45 -87 -91 -117
-74 -49 -103 -54 -133 -26 -41 38 -58 110 -53 214 3 51 10 102 17 114 16 31
129 102 162 102 16 0 32 8 41 22 14 20 15 20 40 4 25 -16 26 -16 31 5 8 28 20
18 62 -47 19 -30 37 -54 39 -54 2 0 16 20 30 44 37 63 70 86 125 87 25 0 64 3
86 7 34 6 49 2 105 -27 36 -19 74 -42 85 -51 11 -10 34 -24 50 -32 30 -14 30
-13 50 26 12 22 33 48 48 60 26 20 28 20 154 2 71 -10 196 -22 278 -27 125 -7
157 -12 192 -31 l41 -22 39 26 c31 22 72 32 227 58 104 17 199 35 212 40 12 5
57 12 99 16 71 6 77 5 101 -17 14 -13 32 -39 39 -56 13 -31 35 -45 35 -23 0 6
7 10 16 10 10 0 14 6 10 15 -4 11 2 15 26 15 17 0 29 3 25 6 -3 4 8 14 26 24
114 62 107 60 210 60 67 0 107 -5 127 -15z m694 -307 c2 -7 9 -33 16 -58 7
-27 26 -57 46 -76 36 -35 35 -44 -8 -44 -22 0 -33 8 -49 35 -11 19 -29 37 -40
40 -23 8 -25 44 -4 85 16 31 33 39 39 18z m-3569 -59 c6 -33 3 -45 -14 -63
-12 -12 -21 -26 -21 -32 0 -5 -14 -25 -30 -44 -29 -33 -31 -34 -36 -13 -3 12
-11 20 -18 17 -6 -2 -16 4 -21 14 -33 62 -37 73 -30 80 4 4 10 1 12 -5 3 -7
11 -13 19 -13 8 0 14 -8 15 -17 0 -11 3 -13 6 -5 2 6 14 12 25 12 14 0 18 5
14 15 -3 8 -1 15 5 15 6 0 9 7 5 15 -9 25 5 74 23 78 25 5 39 -11 46 -54z
m3729 -488 c3 -5 -27 -12 -67 -16 -39 -4 -90 -13 -112 -21 -37 -12 -56 -12
-42 2 30 30 207 58 221 35z m-11 -52 c12 -6 36 -24 53 -40 19 -19 39 -28 55
-27 18 2 25 -2 27 -20 2 -12 -3 -24 -10 -27 -11 -4 -13 -18 -7 -58 8 -66 -20
-134 -66 -157 -16 -8 -33 -19 -37 -25 -5 -7 -11 -6 -15 1 -5 6 -27 21 -49 32
-23 12 -52 34 -66 50 -24 29 -25 29 -34 8 -5 -11 -19 -25 -30 -30 l-21 -10 20
-35 c12 -20 24 -38 27 -41 3 -3 13 -19 23 -37 20 -36 22 -74 5 -91 -17 -17
-113 -15 -183 4 -33 9 -71 19 -85 21 -25 5 -25 5 7 -28 34 -36 63 -95 63 -129
0 -36 -52 -110 -77 -110 -7 0 -13 -4 -13 -10 0 -19 -70 -23 -115 -5 -56 21
-62 31 -38 58 28 31 36 57 18 57 -17 0 -35 30 -35 59 0 30 43 56 69 42 11 -6
24 -11 29 -11 13 0 32 55 32 92 0 21 6 31 26 38 38 15 75 12 96 -7 28 -26 30
-11 3 30 -14 20 -25 40 -25 45 0 16 29 35 77 52 24 8 44 20 44 25 0 6 -25 15
-56 21 -65 14 -73 19 -59 41 19 30 60 54 91 55 25 1 32 6 36 28 10 47 81 126
124 138 52 14 71 14 96 1z m-3203 -177 c0 -9 -44 -32 -60 -32 -21 0 -9 19 18
28 35 13 42 14 42 4z m-261 -64 c35 -28 40 -37 36 -63 -5 -31 -58 -85 -84 -85
-7 0 -33 21 -57 48 -48 52 -52 81 -12 115 31 26 71 21 117 -15z m3922 -164
c12 -14 9 -20 -16 -41 -17 -13 -40 -33 -52 -44 -26 -24 -43 -18 -43 16 0 16
13 33 42 54 49 36 51 36 69 15z m-3791 -48 c0 -16 -28 -42 -36 -33 -8 7 14 47
26 47 6 0 10 -6 10 -14z m146 -77 c38 -23 41 -31 19 -49 -16 -13 -96 -17 -114
-5 -16 9 -13 25 4 25 8 0 15 8 15 18 0 38 27 42 76 11z m3552 -11 c16 -16 15
-28 -3 -28 -8 0 -15 2 -15 4 0 2 -3 11 -6 20 -7 19 7 21 24 4z m-2808 -72 c0
-8 -4 -17 -9 -21 -12 -7 -24 12 -16 25 9 15 25 12 25 -4z m1516 -16 c38 -24
38 -26 25 -165 -5 -49 -4 -85 2 -92 6 -9 6 -13 -2 -13 -6 0 -31 -30 -55 -67
-52 -77 -79 -92 -183 -100 l-71 -6 -16 32 c-20 38 -31 39 -48 4 -16 -33 -62
-49 -187 -69 -110 -16 -275 -19 -266 -4 7 11 -8 14 -19 3 -8 -8 -26 -13 -91
-22 -27 -4 -59 -12 -69 -18 -14 -8 -26 -7 -45 3 -14 7 -61 16 -103 20 -43 3
-78 10 -78 14 0 8 -58 20 -113 25 -10 1 -22 7 -26 13 -5 8 -27 10 -64 8 -46
-4 -57 -2 -57 10 0 12 -7 14 -29 9 -19 -4 -34 -1 -44 9 -9 9 -20 16 -25 16
-20 0 -137 53 -182 83 -26 18 -56 37 -66 43 -16 9 -17 16 -9 40 6 17 20 31 35
35 14 4 108 7 209 8 166 1 187 -1 216 -19 l32 -19 16 34 c21 44 52 50 192 36
60 -6 137 -11 171 -11 53 0 67 -4 94 -26 17 -15 32 -25 34 -23 2 2 11 19 21
38 l17 34 66 -7 c37 -4 104 -9 150 -13 l82 -6 0 60 c0 56 3 63 37 98 l37 38
188 -6 c169 -5 193 -8 224 -27z m1272 11 c3 -8 -1 -12 -9 -9 -7 2 -15 10 -17
17 -3 8 1 12 9 9 7 -2 15 -10 17 -17z m-28 -151 c0 -5 -4 -10 -10 -10 -5 0
-10 5 -10 10 0 6 5 10 10 10 6 0 10 -4 10 -10z m-935 -34 c19 -14 19 -15 2
-34 -10 -11 -34 -23 -53 -26 -20 -4 -34 -13 -34 -21 0 -8 -4 -15 -9 -15 -5 0
-32 -16 -61 -35 -72 -49 -88 -46 -51 8 16 24 33 55 36 69 13 52 125 87 170 54z
m-1915 -246 c0 -5 -4 -10 -10 -10 -5 0 -10 5 -10 10 0 6 5 10 10 10 6 0 10 -4
10 -10z m1104 -82 c-9 -31 -12 -34 -26 -20 -8 8 -8 15 2 27 19 22 32 18 24 -7z
m-454 -48 c0 -5 -4 -10 -10 -10 -5 0 -10 5 -10 10 0 6 5 10 10 10 6 0 10 -4
10 -10z m-910 -9 c0 -5 -9 -19 -20 -32 -19 -23 -19 -23 -20 -3 0 20 17 44 32
44 4 0 8 -4 8 -9z m2996 -5 c10 -8 16 -17 13 -21 -7 -7 -79 20 -79 29 0 12 47
6 66 -8z m-2936 -23 c0 -6 8 -9 19 -6 27 7 45 -28 27 -53 -13 -17 -16 -17 -54
16 -47 41 -52 58 -17 56 14 0 25 -6 25 -13z m2691 -66 c-18 -18 -25 2 -10 30
14 26 14 26 17 4 2 -13 -1 -28 -7 -34z m159 43 c0 -5 16 -12 35 -16 48 -9 61
-34 33 -69 -14 -19 -24 -23 -31 -16 -6 6 -21 11 -33 11 -37 0 -80 70 -57 93
10 11 53 8 53 -3z m-2760 -38 c0 -5 -7 -17 -16 -28 -8 -10 -14 -14 -11 -9 2 6
7 18 10 28 7 17 17 23 17 9z m90 -1 c0 -13 -29 -35 -37 -28 -7 8 15 37 28 37
5 0 9 -4 9 -9z m98 -29 c14 -14 23 -15 45 -8 44 16 50 -2 20 -62 -30 -62 -50
-68 -46 -14 l4 37 -16 -28 c-11 -19 -22 -27 -32 -23 -8 3 -18 6 -21 6 -4 0
-13 14 -21 30 -11 26 -11 34 3 55 19 29 39 32 64 7z m296 12 c25 -9 19 -24 -9
-24 -16 0 -25 6 -25 15 0 16 9 19 34 9z m2171 -4 c3 -5 1 -10 -4 -10 -6 0 -11
5 -11 10 0 6 2 10 4 10 3 0 8 -4 11 -10z m-977 -50 c2 -39 -1 -50 -13 -50 -18
0 -20 21 -3 38 9 9 8 12 -5 12 -20 0 -22 21 -5 38 20 20 24 14 26 -38z m912
30 c0 -5 -7 -10 -15 -10 -8 0 -15 5 -15 10 0 6 7 10 15 10 8 0 15 -4 15 -10z
m148 -57 c15 -30 22 -82 12 -88 -6 -4 -24 3 -41 15 -17 13 -38 20 -50 17 -15
-4 -19 -1 -17 11 3 19 48 30 48 13 0 -6 7 -11 15 -11 18 0 19 12 4 27 -12 12
-4 33 11 33 5 0 13 -8 18 -17z m-233 -83 c3 -5 1 -10 -4 -10 -6 0 -11 5 -11
10 0 6 2 10 4 10 3 0 8 -4 11 -10z m-2014 -36 c8 -10 9 -18 3 -22 -6 -4 -13
-15 -17 -24 -12 -32 -37 -21 -37 15 0 49 24 64 51 31z m949 -54 c8 -5 12 -12
8 -15 -9 -9 -48 4 -48 16 0 12 21 11 40 -1z m-1145 -46 c29 -19 31 -29 9 -38
-18 -7 -44 15 -44 38 0 20 5 20 35 0z m1160 -44 c3 -5 13 -7 23 -4 15 5 15 4
-1 -9 -21 -17 -47 -12 -47 9 0 16 16 19 25 4z m55 -60 c0 -5 -4 -10 -10 -10
-5 0 -10 5 -10 10 0 6 5 10 10 10 6 0 10 -4 10 -10z"/>
</g>
</svg>
