<?xml version="1.0" standalone="no"?>
<!DOCTYPE svg PUBLIC "-//W3C//DTD SVG 20010904//EN"
 "http://www.w3.org/TR/2001/REC-SVG-20010904/DTD/svg10.dtd">
<svg version="1.0" xmlns="http://www.w3.org/2000/svg"
 width="564.000000pt" height="797.000000pt" viewBox="0 0 564.000000 797.000000"
 preserveAspectRatio="xMidYMid meet">

<g transform="translate(0.000000,797.000000) scale(0.100000,-0.100000)"
fill="#000000" stroke="none">
<path d="M3258 6563 c-17 -50 -17 -674 0 -898 13 -162 38 -374 48 -399 5 -12
-23 -13 -173 -9 -257 8 -473 -20 -678 -88 l-91 -30 -128 70 c-376 204 -925
351 -1316 351 -135 0 -180 -9 -180 -36 0 -26 136 -154 240 -226 248 -171 707
-394 1005 -488 76 -24 74 -20 55 -98 -10 -38 -20 -100 -24 -138 -4 -38 -9 -90
-12 -116 l-6 -46 -100 44 c-272 121 -670 229 -988 268 -212 26 -329 31 -335
14 -17 -43 242 -646 369 -861 l55 -94 339 -5 c186 -3 344 -8 350 -12 8 -4 6
-22 -5 -59 -97 -323 -141 -493 -130 -504 7 -6 71 -33 142 -58 217 -78 218 -79
235 -133 23 -68 18 -76 -51 -91 -45 -9 -70 -21 -101 -49 l-40 -36 -21 29 c-39
53 -107 115 -127 115 -13 0 -24 -10 -30 -27 -6 -16 -17 -41 -26 -57 -50 -87
47 -485 179 -739 80 -154 169 -231 214 -186 9 9 29 7 78 -6 57 -16 91 -17 263
-12 108 4 216 10 240 13 42 7 42 7 42 -25 0 -39 17 -47 66 -31 32 11 39 10 49
-4 15 -20 39 -21 55 -1 12 14 15 14 30 0 21 -19 32 -19 68 2 28 16 30 16 57
-5 30 -24 45 -20 83 21 21 22 26 23 63 13 33 -9 46 -8 68 5 27 16 29 15 64
-17 44 -40 64 -43 77 -9 l10 25 32 -20 c38 -23 66 -26 74 -7 3 8 17 11 41 9
26 -3 38 0 45 12 5 9 17 16 28 16 29 0 50 11 50 26 0 11 27 14 140 14 78 0
204 7 281 15 137 16 140 16 166 -5 14 -11 34 -20 45 -20 140 0 329 448 332
787 1 102 -1 114 -22 140 -12 15 -27 38 -32 51 -12 27 -40 28 -70 2 -13 -11
-28 -20 -34 -20 -12 0 -56 -68 -76 -117 -7 -18 -15 -33 -17 -33 -3 0 -31 23
-62 52 -31 28 -79 62 -107 75 l-51 23 -71 147 c-74 155 -116 288 -128 405 l-6
67 57 63 c72 78 147 191 177 266 19 47 23 75 23 162 0 102 -2 110 -58 270 -31
91 -71 228 -88 305 -17 77 -45 178 -63 225 -32 81 -34 95 -45 295 -6 116 -18
257 -26 315 -51 343 -169 692 -317 937 -67 112 -143 203 -170 203 -10 0 -22
-15 -30 -37z m159 -449 c49 -17 135 -68 165 -98 19 -18 73 -184 108 -330 33
-140 60 -347 67 -516 l5 -155 -42 43 c-29 30 -46 40 -53 33 -6 -6 0 -22 20
-48 91 -117 136 -226 183 -440 16 -73 45 -178 64 -234 41 -115 41 -120 22
-113 -25 9 -95 -16 -130 -47 -48 -42 -70 -104 -63 -177 9 -104 57 -170 141
-194 22 -6 43 -13 45 -15 9 -7 -75 -119 -141 -189 -92 -97 -190 -175 -317
-255 -66 -40 -98 -66 -92 -72 16 -16 187 76 276 148 l80 64 16 -94 c22 -124
49 -204 120 -354 33 -68 58 -125 57 -126 -2 -1 -22 -7 -45 -13 -23 -7 -56 -24
-73 -39 -43 -36 -24 -51 26 -21 29 17 54 23 99 23 73 -1 105 -17 187 -93 l61
-58 -43 -125 c-44 -127 -66 -269 -42 -269 7 0 14 12 17 28 30 139 151 472 177
488 7 5 9 -2 5 -17 -12 -51 -19 -189 -10 -189 18 0 34 53 45 140 13 116 17
130 30 130 11 0 7 -99 -8 -229 -10 -76 16 -65 35 15 22 95 31 106 25 29 -23
-294 -142 -623 -255 -707 -33 -25 -52 -16 -74 33 -19 42 -38 47 -43 11 -2 -12
-6 -22 -10 -22 -4 0 -76 -7 -160 -16 -177 -18 -404 -16 -424 4 -11 11 -6 25
25 80 75 132 186 369 216 462 70 219 108 483 85 599 -8 36 -28 36 -30 0 -23
-439 -67 -587 -315 -1056 l-44 -82 23 -23 c12 -14 22 -27 22 -31 0 -15 -38 -6
-55 13 -23 25 -42 11 -26 -19 10 -18 9 -21 -8 -21 -11 0 -22 9 -26 20 -10 32
-35 25 -35 -10 l0 -30 -40 26 c-40 27 -74 27 -64 0 11 -29 -15 -25 -40 6 -23
30 -28 32 -47 20 -11 -7 -22 -12 -23 -10 -33 45 -36 57 -36 158 0 58 -7 168
-15 245 -21 193 -19 225 15 387 33 156 35 168 20 168 -13 0 -27 -35 -55 -135
l-22 -80 -12 60 c-31 153 -69 265 -91 265 -14 0 -13 -6 15 -120 51 -213 89
-499 101 -760 5 -104 11 -161 20 -175 20 -27 17 -37 -5 -25 -32 17 -53 12 -87
-21 l-31 -30 -17 25 c-20 32 -29 32 -66 4 -28 -20 -31 -20 -48 -5 -23 21 -31
21 -54 1 -16 -16 -19 -15 -37 7 -18 22 -19 23 -46 5 -15 -10 -29 -16 -31 -14
-2 3 3 22 12 44 l15 40 -96 159 c-172 287 -259 477 -321 698 -16 59 -32 97
-40 97 -14 0 -12 -31 12 -144 32 -150 140 -384 294 -640 55 -91 100 -171 100
-179 0 -11 -41 -17 -200 -27 -204 -13 -330 -10 -387 11 l-33 11 0 83 c0 85
-11 135 -30 135 -6 0 -10 -39 -10 -103 0 -162 -28 -175 -115 -53 -96 135 -188
383 -229 622 -8 43 -13 80 -11 82 2 2 12 -17 24 -42 12 -27 26 -46 36 -46 12
0 15 5 9 23 -22 70 -34 127 -33 167 1 41 2 39 15 -28 15 -83 49 -162 70 -162
18 0 18 -1 -7 81 -12 39 -19 72 -16 75 8 8 85 -116 129 -208 23 -49 46 -88 51
-88 18 0 -2 84 -37 155 -20 40 -36 77 -36 82 0 12 49 57 79 73 13 7 53 12 88
12 62 0 81 -7 206 -70 4 -2 7 3 7 12 0 21 -74 73 -124 88 -23 6 -42 12 -43 13
-2 1 15 51 37 111 64 179 120 405 120 485 0 37 10 36 37 -3 53 -76 207 -174
293 -185 60 -8 49 12 -20 41 -206 83 -330 242 -369 471 -13 73 -31 407 -31
565 0 125 12 226 35 308 l16 52 49 0 c61 0 65 15 8 30 -201 52 -594 213 -828
340 -56 30 -68 43 -93 92 -24 46 -30 73 -35 147 -2 49 -2 96 1 104 5 13 18 12
104 -3 301 -54 596 -151 852 -279 113 -57 222 -122 264 -157 54 -45 66 -20 16
32 l-31 32 93 30 c167 54 328 76 549 76 170 1 208 -2 295 -23 55 -13 111 -25
124 -28 17 -4 22 -2 19 8 -4 11 -52 36 -122 62 -30 11 -79 518 -86 890 0 13
88 7 137 -9z m-2428 -1444 c310 -47 604 -131 912 -261 l97 -41 6 -59 c4 -33
11 -142 16 -242 8 -172 17 -241 40 -328 10 -37 9 -40 -50 -118 -95 -126 -191
-275 -188 -291 2 -8 49 -37 106 -64 56 -28 102 -55 102 -61 0 -6 -13 -49 -29
-95 l-29 -85 -12 33 c-15 40 -27 46 -210 112 -80 28 -148 55 -152 58 -6 6 82
330 138 505 14 46 15 60 5 66 -16 10 -210 21 -491 27 l-225 4 -29 43 c-66 98
-253 501 -342 741 l-33 89 117 -6 c64 -4 178 -16 251 -27z m2998 -468 c32 -20
40 -201 12 -281 -32 -91 -155 -42 -189 76 -20 65 -6 126 39 173 33 35 44 40
82 40 24 0 49 -4 56 -8z m-1887 -624 c0 -68 -41 -302 -55 -316 -3 -3 -44 13
-91 36 l-86 43 21 32 c48 77 194 277 202 277 5 0 9 -33 9 -72z"/>
<path d="M3540 4698 c-103 -53 -129 -171 -59 -268 50 -69 140 -90 219 -50 115
58 122 232 12 305 -56 37 -117 42 -172 13z m85 -53 c14 -13 25 -33 25 -45 0
-27 -35 -60 -63 -60 -54 0 -80 78 -37 112 30 24 46 23 75 -7z"/>
<path d="M2485 4646 c-164 -73 -124 -326 54 -344 158 -15 258 168 159 293 -44
56 -146 81 -213 51z m127 -53 c24 -21 23 -58 -2 -83 -54 -54 -137 12 -95 76
19 29 69 33 97 7z"/>
<path d="M3163 4413 c-6 -16 28 -53 48 -53 15 0 49 39 49 55 0 22 -88 21 -97
-2z"/>
<path d="M3068 4228 c-131 -69 -181 -78 -257 -43 -53 23 -65 11 -24 -25 28
-26 34 -39 49 -127 29 -175 99 -342 181 -433 78 -87 157 -104 232 -50 95 69
194 282 246 529 13 63 21 79 53 108 l37 34 -30 -6 c-91 -20 -101 -18 -205 29
-56 25 -116 46 -133 46 -19 -1 -80 -26 -149 -62z m222 -4 c64 -29 92 -68 126
-176 l17 -56 -27 -84 c-40 -123 -99 -237 -148 -290 -69 -74 -118 -76 -194 -6
-79 73 -172 292 -190 447 l-6 58 50 6 c33 4 91 27 168 66 66 33 125 60 133 60
7 1 39 -11 71 -25z m170 -100 c0 -42 -5 -43 -25 -4 -20 39 -19 49 5 43 15 -4
20 -14 20 -39z"/>
<path d="M2245 4146 c-87 -32 -155 -147 -139 -234 24 -132 169 -218 287 -169
168 71 186 292 31 387 -42 27 -129 34 -179 16z m157 -52 c62 -32 98 -113 84
-189 -10 -50 -70 -110 -126 -125 -103 -28 -210 53 -210 160 0 133 134 215 252
154z"/>
</g>
</svg>
