<?xml version="1.0" standalone="no"?>
<!DOCTYPE svg PUBLIC "-//W3C//DTD SVG 20010904//EN"
 "http://www.w3.org/TR/2001/REC-SVG-20010904/DTD/svg10.dtd">
<svg version="1.0" xmlns="http://www.w3.org/2000/svg"
 width="2316.000000pt" height="2400.000000pt" viewBox="0 0 2316.000000 2400.000000"
 preserveAspectRatio="xMidYMid meet">

<g transform="translate(0.000000,2400.000000) scale(0.100000,-0.100000)"
fill="#000000" stroke="none">
<path d="M3980 23873 c-161 -164 -220 -238 -361 -453 -141 -215 -323 -476
-440 -632 -161 -213 -217 -308 -317 -537 -51 -119 -106 -251 -122 -293 -35
-91 -199 -635 -229 -758 -27 -107 -37 -130 -56 -130 -57 0 -49 288 21 772 8
59 31 160 50 224 48 165 44 282 -9 292 -26 5 -50 -19 -108 -111 -60 -92 -117
-213 -147 -307 -72 -229 -93 -306 -107 -397 -9 -55 -29 -150 -46 -210 -24 -89
-31 -141 -40 -292 -15 -264 -7 -726 16 -869 21 -134 14 -164 -41 -182 -19 -7
-41 -22 -50 -35 -39 -60 -35 -209 10 -387 34 -133 174 -495 261 -673 67 -137
92 -175 297 -446 123 -162 255 -331 293 -374 39 -43 324 -320 635 -615 683
-648 797 -754 921 -858 53 -44 164 -154 247 -244 177 -192 237 -251 314 -306
31 -23 76 -65 101 -94 99 -115 195 -236 237 -298 24 -36 72 -96 106 -135 35
-38 123 -140 196 -225 73 -85 197 -227 276 -314 231 -257 335 -409 496 -726
123 -241 160 -334 196 -483 25 -106 100 -483 146 -732 13 -66 17 -287 23
-1270 l9 -1190 52 -190 c28 -104 60 -232 71 -284 20 -98 60 -185 92 -203 29
-15 63 -1 77 32 15 36 37 50 78 50 52 0 56 15 63 229 5 203 15 251 49 251 9 0
26 -11 38 -24 23 -27 70 -40 142 -40 56 0 198 38 218 58 24 24 7 62 -46 98
-72 50 -89 73 -106 148 -24 102 -38 346 -31 510 13 331 36 520 90 770 57 262
69 373 69 675 1 266 1 272 -31 425 -18 85 -42 225 -53 310 -25 186 -117 548
-186 730 -91 244 -246 571 -327 690 -90 132 -388 486 -578 686 -141 148 -219
222 -369 349 -296 251 -938 843 -1135 1046 -118 122 -518 579 -651 744 -105
130 -191 247 -349 475 -71 102 -192 275 -271 385 -205 288 -232 335 -466 800
l-212 420 0 465 c-1 405 2 498 22 724 12 143 29 364 37 490 16 243 38 404 80
583 43 183 105 394 141 481 86 208 286 573 425 777 38 55 155 206 260 335 195
239 228 290 229 348 0 35 -29 72 -57 72 -9 0 -74 -57 -143 -127z m-939 -1694
c-11 -41 -35 -131 -55 -201 -43 -157 -46 -178 -98 -723 -41 -427 -42 -451 -41
-790 2 -443 18 -854 39 -951 19 -95 119 -398 178 -542 57 -139 123 -272 188
-375 27 -44 84 -149 125 -233 49 -101 103 -193 157 -267 179 -245 834 -1165
863 -1212 35 -57 49 -95 35 -95 -32 0 -202 150 -837 740 -431 401 -519 490
-720 730 -44 52 -122 142 -174 200 -52 58 -117 141 -146 185 -86 132 -333 615
-341 666 l-6 44 25 -25 c14 -14 51 -67 82 -118 30 -51 148 -223 262 -383 188
-265 265 -359 294 -359 14 0 39 63 39 97 -1 45 -32 101 -121 220 -186 246
-361 574 -453 848 -46 137 -118 469 -161 740 -25 158 -27 186 -22 395 8 359
67 700 124 718 29 8 41 -111 23 -228 -15 -97 -12 -226 10 -477 24 -261 41
-359 72 -422 20 -39 27 -46 53 -46 25 0 34 7 54 44 49 89 71 212 96 536 21
268 34 338 114 593 79 254 139 408 228 587 104 209 152 253 114 104z m195
-3188 c9 -20 30 -58 47 -86 59 -94 520 -760 578 -835 32 -41 87 -118 122 -170
132 -197 331 -446 576 -720 327 -368 843 -888 1016 -1025 55 -44 132 -108 170
-144 39 -35 133 -114 210 -176 174 -139 603 -573 752 -759 220 -275 360 -517
491 -846 105 -263 162 -466 221 -777 57 -296 65 -398 65 -788 0 -371 -7 -460
-53 -640 -16 -60 -44 -209 -62 -330 -32 -208 -34 -234 -33 -475 0 -191 5 -281
18 -360 37 -225 40 -259 30 -287 -13 -38 -48 -40 -149 -9 -106 33 -139 33
-172 0 -27 -28 -27 -14 -7 -205 8 -81 -2 -91 -50 -48 -56 49 -114 176 -127
279 -17 126 -16 1295 1 1592 13 226 13 250 -9 490 -34 389 -46 473 -111 774
-94 437 -101 460 -142 537 -86 162 -174 339 -224 449 -28 65 -74 149 -101 187
-47 67 -198 249 -413 495 -292 335 -469 564 -1035 1341 -265 364 -543 740
-961 1305 -147 198 -250 352 -295 443 -18 34 -72 134 -122 222 -157 279 -296
543 -307 586 -6 23 -9 48 -5 57 5 12 11 10 35 -13 16 -15 37 -44 46 -64z"/>
<path d="M20259 22779 c-12 -24 -11 -41 33 -384 23 -175 32 -282 32 -395 0
-147 -3 -171 -57 -465 -76 -409 -102 -530 -143 -647 -39 -110 -329 -798 -380
-899 -37 -75 -79 -129 -100 -129 -37 0 -39 28 -39 595 -1 387 -5 580 -14 650
-21 169 -68 380 -137 625 l-67 235 -110 163 c-117 174 -205 276 -234 270 -29
-5 -28 -74 1 -160 13 -41 50 -132 81 -202 68 -154 97 -265 131 -496 48 -334
52 -520 18 -810 -22 -190 -47 -298 -134 -579 -161 -520 -180 -522 -162 -17 7
190 7 355 2 448 -14 232 -40 497 -56 572 -36 170 -120 357 -269 596 -149 238
-157 249 -334 441 -160 173 -169 181 -258 227 -87 44 -93 46 -109 30 -16 -16
-16 -21 6 -80 12 -35 81 -180 153 -323 159 -318 241 -496 274 -594 14 -41 47
-180 74 -309 44 -208 52 -261 67 -480 24 -357 23 -384 -37 -712 -83 -453 -101
-522 -144 -558 -24 -20 -35 5 -66 164 -64 318 -105 460 -170 589 -84 166 -176
310 -316 493 -156 202 -194 243 -333 356 -246 198 -419 284 -469 233 -16 -16
-16 -19 4 -59 12 -24 84 -117 162 -207 160 -185 188 -228 270 -408 136 -298
201 -501 221 -683 17 -155 26 -765 11 -774 -22 -14 -52 26 -113 149 -118 235
-176 301 -423 480 -157 114 -305 194 -372 201 -101 11 -97 -17 34 -209 216
-316 264 -394 327 -520 35 -73 81 -177 101 -232 34 -90 37 -107 31 -165 -10
-112 -44 -209 -147 -415 -54 -110 -106 -229 -115 -265 -27 -107 -87 -212 -234
-406 -150 -197 -274 -342 -530 -614 -345 -367 -724 -787 -881 -976 -221 -266
-336 -443 -697 -1080 -63 -110 -170 -332 -262 -544 -38 -85 -97 -218 -133
-295 -35 -77 -83 -189 -105 -250 -45 -120 -245 -736 -312 -960 -23 -76 -52
-157 -65 -180 -38 -65 -146 -350 -250 -655 -53 -157 -119 -339 -147 -405 -28
-66 -75 -187 -105 -270 -66 -178 -243 -571 -318 -705 -29 -52 -165 -255 -300
-450 -136 -195 -288 -416 -338 -490 -132 -198 -190 -273 -281 -368 -152 -158
-296 -262 -541 -388 -181 -94 -176 -93 -364 -74 -320 33 -571 193 -731 465
-53 92 -93 197 -131 346 -17 67 -46 153 -64 190 -22 46 -37 98 -45 156 -17
119 -7 385 20 528 11 61 45 273 75 473 56 371 63 410 94 497 10 28 21 78 25
112 4 34 23 117 42 185 40 141 282 873 359 1088 29 80 58 170 65 200 12 53 91
283 131 383 11 26 31 86 44 133 14 46 62 169 106 272 45 103 122 284 171 402
49 118 129 310 178 425 49 116 115 291 148 390 33 99 83 243 112 320 79 214
100 370 56 413 -16 16 -20 15 -51 -22 -49 -56 -113 -191 -131 -277 -35 -171
-147 -488 -374 -1064 -203 -514 -257 -660 -282 -757 -11 -43 -40 -116 -64
-162 -47 -89 -253 -644 -274 -736 -15 -71 -56 -194 -114 -344 -25 -65 -84
-251 -130 -415 -47 -163 -110 -371 -140 -463 -46 -137 -59 -195 -76 -321 -11
-85 -27 -174 -35 -197 -21 -61 -72 -319 -84 -431 -6 -53 -18 -116 -26 -140
-10 -27 -18 -98 -22 -189 -3 -87 -12 -163 -21 -190 -12 -36 -16 -136 -22 -505
l-7 -460 -37 -150 c-20 -82 -43 -179 -51 -215 -44 -209 -22 -310 68 -310 43 0
86 -27 93 -58 3 -15 9 -40 13 -57 4 -18 21 -39 42 -54 31 -21 41 -23 126 -18
l92 5 108 -116 c135 -144 268 -261 344 -302 61 -32 166 -60 232 -60 65 0 116
58 199 227 39 79 80 150 92 158 32 23 89 18 245 -20 435 -107 659 -93 732 45
21 39 25 124 9 180 -15 50 -15 107 1 127 8 9 61 39 119 66 58 27 113 56 123
64 22 21 22 57 -3 145 -58 210 -9 297 309 552 91 74 187 156 213 184 26 27
111 137 191 243 303 408 329 473 357 899 20 303 31 353 135 649 51 146 146
403 210 571 166 433 297 788 365 985 175 511 276 757 545 1330 169 360 197
411 302 553 279 372 476 541 634 542 63 0 166 -33 216 -69 53 -38 77 -80 104
-176 38 -141 73 -186 133 -171 39 10 144 113 196 193 128 195 161 411 99 649
-35 137 -33 170 13 209 38 32 48 36 198 81 286 87 583 276 832 530 110 113
189 224 246 344 69 148 121 219 259 357 128 128 234 210 446 343 234 147 338
196 672 320 431 160 906 406 1110 575 83 69 284 256 566 530 159 153 171 168
298 358 214 321 226 343 460 850 161 348 201 460 201 561 0 67 -11 86 -46 86
-33 0 -56 -35 -205 -315 -73 -137 -156 -286 -185 -330 -93 -141 -394 -488
-410 -472 -4 4 40 100 99 214 116 229 301 630 352 763 122 321 299 925 364
1245 58 288 68 409 37 444 -48 53 -83 3 -111 -159 -22 -128 -48 -230 -97 -380
-233 -717 -800 -1767 -1069 -1980 -28 -22 -57 -39 -63 -37 -19 7 -8 76 39 237
82 285 97 426 100 980 3 439 -7 620 -51 925 -31 215 -146 531 -215 589 -37 31
-45 32 -60 5z m-1828 -912 c123 -155 313 -515 347 -657 12 -47 31 -175 43
-285 28 -261 38 -830 19 -1181 -14 -256 -13 -261 33 -311 67 -74 161 28 252
272 33 90 230 771 245 850 7 33 15 181 20 329 6 218 11 271 23 283 13 14 17
13 29 -8 10 -20 13 -127 11 -564 -3 -646 -11 -817 -47 -928 -43 -130 -30 -207
36 -207 34 0 117 74 246 220 66 76 87 111 191 320 260 524 395 934 491 1493
40 236 63 289 90 215 17 -49 24 -478 11 -738 -9 -186 -16 -248 -40 -357 -53
-237 -121 -484 -181 -665 -46 -136 -60 -189 -60 -235 0 -65 11 -83 50 -83 40
0 109 63 261 240 250 289 290 341 410 525 144 219 219 328 226 322 10 -11
-164 -400 -249 -557 -180 -332 -288 -472 -649 -846 -213 -221 -223 -234 -208
-267 18 -41 61 -53 112 -33 99 38 446 344 798 705 130 132 239 241 242 241 41
0 -72 -213 -191 -361 -263 -326 -682 -752 -847 -861 -262 -172 -659 -376 -930
-477 -227 -86 -352 -142 -520 -236 -186 -104 -637 -377 -702 -426 -54 -40
-236 -268 -306 -382 -21 -34 -47 -93 -58 -130 -39 -125 -239 -353 -239 -272 0
9 27 83 59 165 105 263 141 452 141 750 0 300 -39 563 -140 940 -69 256 -65
245 -209 546 -144 299 -154 324 -123 324 69 0 329 -320 372 -457 9 -32 36
-101 60 -153 65 -147 106 -268 126 -363 23 -120 66 -168 105 -120 18 21 27
1116 10 1203 -6 31 -15 112 -21 180 -8 102 -19 157 -60 298 -27 95 -68 221
-91 280 -114 298 -116 320 -15 220 192 -194 365 -456 437 -666 24 -70 123
-509 138 -612 31 -215 53 -509 47 -621 -6 -106 -6 -116 13 -133 27 -25 55 -13
76 31 10 21 42 156 71 303 52 258 118 533 167 695 45 148 73 407 83 765 7 264
-6 472 -41 645 -13 66 -31 161 -40 210 -24 133 -58 247 -136 446 -72 187 -87
260 -49 239 11 -6 39 -34 61 -63z m-1083 -3309 c13 -16 57 -165 71 -238 30
-163 56 -585 47 -770 -5 -101 -13 -153 -45 -270 -47 -175 -61 -210 -147 -381
-90 -181 -134 -247 -209 -317 -65 -61 -208 -168 -264 -197 -55 -28 -314 -116
-370 -125 -67 -12 -99 -32 -117 -75 -21 -50 -17 -85 15 -167 19 -49 35 -117
47 -207 l18 -134 -22 -111 c-38 -183 -91 -272 -159 -264 -24 2 -33 14 -62 71
-44 89 -112 157 -203 201 -80 38 -197 66 -281 66 -52 0 -56 -2 -163 -87 -154
-124 -430 -401 -491 -493 -127 -193 -295 -531 -432 -872 -50 -125 -118 -279
-151 -344 -33 -64 -60 -127 -60 -141 0 -13 -19 -68 -41 -121 -48 -112 -85
-212 -176 -477 -90 -265 -234 -637 -379 -986 -123 -297 -141 -349 -168 -490
-8 -42 -35 -124 -60 -184 -28 -64 -51 -137 -57 -179 -12 -77 -19 -110 -43
-201 -8 -33 -22 -125 -30 -205 -26 -245 -64 -385 -161 -588 -120 -251 -270
-432 -438 -530 -223 -130 -424 -359 -488 -555 -20 -61 -21 -73 -10 -115 37
-141 37 -139 10 -168 -13 -14 -54 -41 -91 -60 -37 -19 -83 -50 -102 -69 -48
-47 -54 -89 -27 -171 27 -78 24 -111 -10 -136 -37 -28 -166 -41 -319 -33 -171
9 -249 21 -358 57 -211 69 -327 5 -378 -206 -35 -145 -67 -176 -161 -157 -139
28 -346 182 -440 330 -20 31 -47 72 -60 91 -12 20 -37 44 -54 54 -28 17 -37
17 -108 5 -43 -6 -86 -9 -95 -6 -20 8 -36 48 -36 92 0 50 -36 87 -91 94 -42 6
-44 7 -47 43 -2 20 15 112 37 205 57 241 70 319 80 491 14 220 41 252 102 123
160 -338 228 -446 352 -555 135 -118 317 -212 462 -237 57 -10 88 -9 184 5
277 39 344 59 561 169 l125 64 233 253 c320 347 379 421 523 648 68 108 181
283 252 389 171 258 239 386 350 658 25 61 74 173 110 250 36 77 95 228 132
335 37 107 126 355 197 550 72 195 179 490 240 655 129 354 235 668 314 930
63 210 87 271 264 655 203 442 262 552 563 1050 176 291 264 422 355 528 42
49 158 183 256 298 251 292 317 364 605 659 407 416 526 555 690 805 115 175
150 243 215 415 24 66 62 161 84 210 22 50 49 111 60 138 22 49 32 56 50 35z"/>
<path d="M10179 20745 c-3 -2 -62 -9 -131 -14 -136 -10 -112 -3 -389 -124
-234 -103 -311 -148 -501 -299 -101 -80 -149 -134 -278 -313 -51 -71 -97 -135
-101 -140 -14 -19 -70 -290 -64 -312 14 -58 69 -9 159 140 197 329 455 526
921 703 281 107 309 115 433 125 64 5 153 15 197 21 152 21 173 20 318 -6 78
-14 177 -30 219 -36 112 -14 228 -77 407 -223 171 -140 399 -403 459 -529 73
-154 170 -446 230 -693 l30 -120 5 -470 6 -470 -49 -151 c-27 -83 -63 -220
-80 -305 -17 -85 -53 -242 -81 -349 -53 -210 -56 -229 -37 -248 36 -36 71 17
155 236 96 248 118 315 147 442 78 350 126 765 126 1101 0 170 -4 219 -30 378
-37 223 -45 258 -83 341 -16 36 -40 97 -54 135 -80 221 -256 490 -443 675 -81
81 -311 266 -400 322 -164 102 -355 153 -669 178 -137 10 -414 14 -422 5z"/>
<path d="M22057 19818 c-18 -29 -48 -79 -67 -111 -43 -71 -111 -155 -303 -372
-298 -335 -317 -351 -722 -620 -539 -357 -726 -470 -1000 -606 -143 -71 -204
-95 -300 -119 -158 -40 -217 -82 -201 -143 8 -33 76 -62 220 -93 121 -27 166
-42 166 -55 0 -13 -52 -44 -276 -165 -223 -121 -503 -259 -549 -270 -16 -4
-61 -20 -100 -36 -38 -16 -96 -34 -128 -39 -32 -5 -67 -15 -77 -22 -30 -18
-40 -58 -25 -95 33 -77 155 -110 455 -121 246 -8 524 2 735 28 193 24 295 27
313 9 7 -7 12 -29 12 -49 0 -29 7 -43 31 -63 17 -14 43 -29 57 -34 36 -10 210
-9 299 2 62 8 73 7 79 -7 3 -8 1 -25 -5 -36 -25 -45 -291 -199 -623 -360 -244
-119 -403 -183 -518 -210 -143 -33 -200 -66 -200 -115 0 -33 53 -81 125 -116
84 -40 332 -123 483 -162 114 -29 142 -32 272 -33 138 0 151 2 276 38 205 58
251 47 162 -40 -103 -99 -291 -203 -613 -338 -278 -117 -449 -175 -614 -209
-129 -27 -161 -43 -161 -82 0 -72 159 -83 501 -35 287 41 386 61 594 122 296
88 350 107 542 196 162 75 196 87 243 88 52 0 55 -1 58 -27 5 -39 -127 -293
-186 -359 -25 -28 -98 -94 -162 -145 -63 -51 -145 -117 -182 -147 -36 -30
-101 -76 -145 -103 -43 -26 -152 -95 -243 -153 -201 -128 -304 -180 -615 -311
-264 -112 -322 -130 -406 -130 -86 0 -1098 -129 -1136 -145 -69 -29 -23 -94
79 -113 35 -6 144 -36 243 -66 l180 -54 321 -7 322 -6 229 74 c316 103 373
114 373 73 0 -28 -311 -254 -558 -406 -149 -92 -170 -116 -142 -160 56 -89
769 229 1251 558 283 193 593 479 618 570 11 39 7 54 -27 100 l-25 33 29 30
c16 17 110 89 209 160 443 317 806 625 1019 865 45 50 135 169 200 265 66 96
222 318 346 494 362 511 360 508 360 595 0 113 -45 75 -238 -202 l-122 -175
-184 -128 c-263 -184 -597 -399 -700 -450 -136 -69 -156 -59 -86 42 23 32 40
67 38 78 -5 34 -85 26 -194 -18 -195 -79 -324 -88 -324 -22 0 34 40 77 133
142 235 164 407 294 460 348 61 62 211 252 278 351 58 85 53 154 -13 154 -22
0 -38 -14 -82 -68 -71 -88 -109 -114 -471 -319 -463 -263 -646 -353 -716 -353
-51 0 -31 30 51 79 158 93 235 152 457 352 242 220 326 303 519 519 220 247
218 243 453 739 l111 234 0 106 c0 77 -4 113 -14 127 -14 19 -15 18 -41 -6
-15 -14 -59 -69 -97 -124 -107 -149 -206 -265 -377 -439 -237 -241 -378 -348
-619 -470 -180 -91 -287 -125 -317 -103 -15 10 -11 19 31 76 26 35 73 89 105
120 67 64 89 104 89 158 0 44 -19 67 -47 58 -11 -3 -55 -29 -98 -57 -236 -149
-744 -353 -912 -366 -64 -5 -73 -4 -73 11 0 18 60 59 195 131 295 159 468 266
775 484 173 122 210 157 283 266 34 50 110 155 171 235 60 80 122 165 137 190
45 74 344 707 384 815 75 201 83 316 23 323 -24 3 -32 -4 -61 -50z m-203 -586
c-56 -175 -194 -417 -382 -667 -351 -465 -505 -584 -1225 -941 -215 -106 -347
-165 -435 -194 -70 -23 -140 -50 -158 -60 -38 -24 -58 -64 -44 -90 18 -34 73
-43 214 -36 314 16 540 71 914 222 100 41 187 74 192 74 21 0 8 -30 -33 -76
-84 -96 -97 -115 -97 -145 0 -66 127 -75 305 -24 112 33 223 85 390 185 268
159 323 202 612 478 164 157 200 188 210 179 18 -19 -93 -293 -160 -395 -56
-84 -263 -329 -410 -486 -119 -128 -544 -506 -643 -573 -228 -154 -585 -325
-802 -383 -130 -35 -156 -72 -75 -107 31 -13 61 -14 158 -10 155 8 273 29 415
73 169 53 248 87 640 279 365 179 410 198 410 174 0 -22 -244 -253 -318 -302
-37 -24 -151 -88 -254 -142 -260 -136 -288 -163 -232 -216 25 -24 28 -24 245
-27 l219 -3 -6 -64 c-6 -62 -6 -65 19 -76 32 -15 99 -3 266 48 161 48 215 76
450 232 256 171 273 181 301 181 19 0 21 -4 16 -27 -9 -37 -97 -211 -140 -276
-45 -68 -260 -336 -362 -452 -81 -91 -290 -268 -559 -473 -129 -98 -353 -251
-606 -412 -136 -87 -199 -143 -199 -180 0 -36 20 -51 82 -61 29 -5 58 -15 66
-23 13 -13 12 -19 -6 -48 -30 -49 -88 -101 -272 -248 -228 -182 -421 -310
-697 -462 -54 -30 -93 -34 -101 -10 -2 8 23 40 56 73 70 68 349 277 460 346
174 106 213 134 232 165 28 46 26 84 -5 104 -32 21 -73 12 -122 -28 -21 -16
-60 -42 -88 -56 -63 -32 -442 -198 -603 -263 -144 -59 -372 -114 -542 -130
-235 -22 -572 23 -614 83 -35 50 18 63 335 83 134 9 286 22 336 30 180 29 458
132 778 290 252 124 424 229 645 393 256 190 269 201 341 298 38 50 107 126
153 168 65 58 93 93 116 140 56 113 64 253 19 310 -35 44 -76 36 -224 -45
-278 -152 -293 -157 -677 -254 -384 -97 -475 -110 -400 -56 16 11 164 90 329
174 431 222 585 323 633 418 28 54 25 76 -12 99 -48 29 -109 25 -223 -14 -147
-49 -276 -71 -435 -71 -134 0 -322 22 -445 51 -95 23 -239 74 -265 95 -39 29
-17 48 124 106 313 128 897 414 1001 491 89 65 183 160 209 209 23 46 21 89
-6 107 -31 22 -77 20 -193 -9 -115 -29 -216 -33 -239 -10 -18 18 -13 35 25 90
42 58 47 100 19 130 -31 33 -77 32 -155 -1 -99 -42 -176 -61 -373 -93 -266
-44 -344 -51 -542 -51 -261 0 -450 29 -458 71 -3 15 48 43 118 64 52 16 298
133 695 331 433 216 475 242 475 302 0 74 -96 90 -266 47 -79 -20 -120 -26
-157 -22 -53 7 -101 32 -92 48 10 16 141 78 262 125 134 52 263 116 398 197
175 105 887 578 959 636 38 31 173 157 299 281 127 124 232 219 235 212 2 -7
-9 -52 -24 -100z"/>
<path d="M1571 19792 c-7 -14 -5 -37 9 -83 11 -35 59 -230 106 -434 103 -443
140 -583 204 -775 54 -161 219 -584 334 -858 82 -197 96 -242 73 -242 -24 0
-130 122 -239 275 -160 223 -256 342 -368 455 -102 103 -154 138 -185 126 -32
-12 -16 -67 70 -230 91 -175 138 -287 133 -320 -3 -17 -12 -9 -53 44 -28 35
-93 118 -146 185 -140 175 -186 241 -334 477 -73 117 -144 221 -158 231 -32
25 -67 15 -67 -18 0 -35 36 -124 133 -330 101 -215 158 -359 239 -595 54 -159
114 -298 182 -420 13 -25 49 -97 80 -160 30 -63 92 -173 137 -245 182 -290
614 -1043 726 -1270 136 -273 148 -299 139 -320 -12 -32 -42 -11 -145 98 -288
305 -485 469 -576 479 -26 3 -30 -1 -33 -23 -6 -54 66 -181 247 -433 112 -157
127 -195 64 -163 -16 9 -76 64 -133 123 -154 158 -225 224 -425 394 -244 207
-339 269 -408 270 -64 0 -44 -42 113 -236 52 -65 162 -206 243 -313 139 -184
155 -210 262 -426 134 -270 167 -366 230 -661 94 -444 148 -637 287 -1029 98
-276 149 -393 247 -570 54 -98 66 -133 52 -153 -12 -19 -63 8 -181 98 -152
116 -256 206 -396 342 -130 126 -170 152 -203 131 -31 -20 -20 -100 27 -197
74 -155 181 -306 347 -491 114 -126 160 -185 271 -342 146 -207 163 -227 584
-666 l275 -288 223 -150 c366 -247 605 -399 627 -399 25 0 45 18 45 41 0 33
-141 148 -526 425 -263 190 -285 210 -549 514 -143 164 -173 206 -157 222 15
15 46 0 203 -97 139 -88 202 -117 238 -113 59 7 25 87 -111 258 -49 63 -100
135 -113 160 -21 42 -122 361 -166 525 -22 82 -25 145 -6 145 24 0 73 -38 185
-143 130 -122 221 -187 262 -187 34 0 39 13 28 64 -23 102 -135 266 -378 555
-359 426 -372 445 -495 721 -104 236 -82 251 107 72 168 -160 466 -402 574
-467 61 -37 108 -45 117 -21 21 55 -83 235 -229 399 -134 150 -173 198 -248
312 -170 256 -194 335 -99 335 99 0 297 -150 643 -485 123 -120 251 -240 283
-267 108 -89 174 -108 198 -54 14 31 -3 69 -88 197 -38 57 -103 160 -143 229
-40 69 -100 170 -133 225 -32 55 -166 258 -297 450 -232 342 -516 780 -597
920 -22 39 -76 156 -118 260 -43 105 -100 243 -126 308 -122 295 -189 553
-163 621 14 36 38 17 146 -110 148 -175 253 -254 337 -254 67 0 78 24 85 188
8 175 14 215 31 238 14 19 15 19 47 0 59 -34 182 -93 228 -109 89 -30 274 -70
322 -68 53 1 102 21 112 46 17 45 6 84 -39 137 -25 29 -53 66 -63 83 -31 53
-126 146 -222 218 -114 84 -531 499 -671 667 -231 277 -564 857 -629 1095 -76
276 -234 666 -328 807 -23 36 -66 68 -91 68 -6 0 -15 -8 -20 -18z m443 -1184
c8 -13 23 -45 34 -73 58 -147 226 -412 458 -722 187 -249 217 -280 504 -519
80 -67 213 -172 295 -233 229 -171 218 -161 205 -176 -20 -24 -85 -27 -204
-10 -162 22 -226 45 -347 121 -231 146 -273 148 -225 8 41 -117 61 -391 30
-401 -33 -11 -371 252 -415 323 -25 41 -70 64 -124 64 -86 0 -94 -38 -41 -176
19 -49 42 -118 51 -154 47 -187 123 -400 205 -580 29 -63 75 -176 102 -250 57
-154 133 -307 247 -497 98 -164 196 -303 491 -698 204 -274 239 -326 300 -450
75 -153 124 -281 116 -302 -11 -28 -69 19 -290 236 -123 119 -249 235 -281
256 -74 49 -286 141 -370 160 -87 21 -115 10 -115 -43 0 -107 104 -316 247
-495 92 -115 146 -217 115 -217 -8 0 -189 147 -383 311 -122 104 -168 132
-202 127 -33 -5 -32 -39 3 -179 45 -178 80 -259 177 -415 47 -77 115 -186 150
-244 l65 -105 -7 -65 c-12 -118 52 -404 149 -668 25 -67 55 -171 67 -230 11
-59 38 -151 60 -206 21 -54 39 -100 39 -103 0 -3 -19 -3 -41 0 -29 4 -69 24
-130 67 -149 103 -188 112 -219 50 -23 -45 -27 -46 -56 -22 -24 19 -190 218
-274 327 -30 39 -104 133 -165 210 -119 148 -128 164 -115 186 14 22 59 -6
235 -143 188 -146 231 -176 311 -217 217 -110 236 18 45 302 -101 152 -202
350 -256 507 -165 474 -209 629 -315 1113 -50 224 -68 286 -141 472 -81 208
-179 397 -298 578 -90 136 -115 187 -94 187 16 0 119 -89 199 -173 49 -51 179
-196 289 -322 276 -316 275 -315 309 -318 18 -1 32 4 39 15 16 25 -5 79 -128
335 -105 216 -132 280 -121 290 18 18 121 -83 339 -332 159 -181 254 -282 280
-296 23 -13 57 6 57 32 0 32 -51 175 -138 389 -43 107 -94 236 -113 285 -18
50 -77 162 -129 250 -53 88 -120 203 -150 255 -29 52 -88 154 -130 225 -43 72
-167 290 -275 485 -108 195 -240 429 -293 519 -57 99 -103 189 -113 226 -9 34
-37 113 -63 177 -50 125 -57 168 -28 168 29 0 83 -64 202 -240 131 -193 177
-249 243 -301 83 -66 137 -46 121 44 -3 23 -26 92 -50 154 -43 109 -53 153
-35 153 16 0 88 -77 211 -226 152 -184 212 -248 269 -285 50 -32 111 -39 131
-14 18 21 -3 78 -105 290 -86 181 -198 453 -210 514 -4 19 -38 112 -76 207
-111 282 -159 421 -159 464 0 45 12 51 34 18z"/>
<path d="M9544 19611 c-72 -44 -124 -143 -124 -236 0 -51 -30 -96 -116 -174
-160 -147 -210 -147 -378 -3 -45 39 -70 53 -104 58 -61 9 -165 -2 -203 -21
-58 -30 -63 -59 -67 -370 l-4 -280 -46 -65 c-26 -35 -129 -149 -230 -253 -261
-269 -339 -381 -350 -505 -5 -60 16 -126 55 -172 63 -75 198 -10 454 220 131
118 181 153 334 236 159 86 215 147 170 184 -41 34 -172 -22 -399 -169 -141
-92 -189 -110 -203 -75 -9 25 28 91 101 177 129 155 209 297 246 442 18 68 20
105 18 246 -3 219 3 228 107 144 22 -18 80 -54 127 -79 79 -42 94 -46 155 -46
80 -1 140 -13 160 -33 9 -9 18 -48 22 -104 9 -106 38 -175 85 -204 43 -26 65
-24 77 9 6 15 15 110 19 212 12 253 17 270 180 537 105 171 127 230 105 273
-35 68 -124 92 -191 51z"/>
<path d="M10703 19309 c-42 -12 -98 -78 -157 -185 -145 -263 -265 -387 -467
-483 -99 -47 -200 -75 -349 -96 -60 -8 -120 -20 -135 -27 -40 -18 -29 -48 29
-77 60 -30 210 -40 326 -22 176 28 402 127 522 229 189 160 358 432 360 575 0
43 -4 55 -27 74 -28 24 -50 27 -102 12z"/>
<path d="M10858 18738 c-10 -18 -12 -91 -11 -328 3 -414 -4 -492 -82 -905 -83
-439 -75 -406 -205 -865 -60 -212 -143 -509 -185 -660 -225 -812 -193 -717
-445 -1330 -359 -871 -507 -1217 -645 -1505 -125 -262 -148 -329 -126 -364 15
-24 45 4 86 80 22 41 58 96 80 124 93 115 151 217 344 603 292 583 521 1102
671 1517 40 110 112 302 161 428 88 225 117 314 263 807 97 329 101 348 126
585 11 110 27 250 35 310 50 376 61 621 46 985 -14 328 -26 472 -43 508 -17
35 -52 40 -70 10z"/>
<path d="M4451 15446 c-28 -33 -23 -43 366 -681 77 -126 163 -273 191 -325 56
-104 120 -282 129 -360 17 -143 -43 -94 -301 247 -59 79 -119 152 -133 163
-30 23 -85 26 -102 6 -20 -24 -2 -60 71 -147 80 -94 108 -149 134 -260 17 -75
15 -109 -6 -109 -21 0 -114 97 -292 303 -198 229 -327 367 -494 527 -181 175
-249 217 -284 175 -23 -28 8 -72 114 -158 55 -45 120 -109 145 -142 25 -33
104 -134 176 -225 175 -219 177 -221 337 -532 151 -294 275 -520 318 -583 42
-61 65 -112 93 -200 13 -44 47 -143 74 -220 55 -153 71 -219 54 -230 -17 -10
-43 13 -123 110 -108 131 -378 425 -566 617 -117 119 -172 169 -194 173 -68
15 -55 -35 41 -168 102 -140 181 -332 276 -669 62 -219 124 -387 206 -557 88
-183 115 -225 308 -482 247 -328 284 -417 125 -308 -102 70 -181 88 -209 46
-21 -33 -4 -84 55 -160 27 -34 77 -101 110 -150 34 -48 97 -130 141 -183 89
-107 103 -129 95 -150 -8 -21 -38 -17 -144 16 -52 17 -105 30 -116 28 -50 -7
-24 -76 104 -277 81 -128 106 -179 92 -193 -21 -21 -207 75 -308 161 -33 27
-137 135 -233 240 -181 198 -227 241 -258 241 -23 0 -43 -19 -43 -41 0 -33
209 -437 313 -604 115 -184 251 -338 467 -527 71 -63 103 -107 91 -126 -4 -7
-23 -21 -42 -30 -39 -20 -47 -43 -25 -77 14 -21 55 -50 284 -199 40 -26 77
-57 83 -69 16 -30 -13 -50 -116 -82 -98 -30 -146 -64 -129 -91 6 -10 24 -22
40 -26 37 -10 307 -33 629 -53 138 -9 280 -20 317 -25 149 -22 217 -10 275 49
66 65 56 134 -30 229 -159 173 -437 593 -437 660 0 10 21 53 47 97 64 107 65
150 4 288 -43 100 -50 149 -20 155 9 2 51 -21 93 -50 157 -108 181 -117 192
-72 12 48 -57 225 -196 499 -115 227 -180 328 -297 461 -165 187 -181 218
-133 261 28 24 31 33 27 65 -3 21 -26 89 -52 153 -25 63 -49 130 -52 149 l-5
35 51 -17 c65 -20 85 -11 89 44 5 56 -18 135 -129 434 -102 277 -137 386 -126
396 15 15 41 -12 103 -106 37 -56 88 -150 114 -208 88 -199 201 -367 346 -514
44 -44 100 -89 131 -105 l54 -28 21 25 c20 24 20 33 15 505 -4 410 -7 503 -25
638 -27 202 -45 268 -127 452 -117 266 -208 408 -249 392 -31 -12 -29 -55 9
-168 57 -171 136 -634 121 -714 -16 -82 -40 -40 -181 320 -134 342 -336 738
-562 1100 -122 196 -222 323 -325 417 -51 45 -183 171 -293 279 -276 270 -287
278 -314 245z m506 -578 c59 -56 254 -285 345 -406 74 -98 278 -437 360 -601
49 -95 87 -192 134 -340 106 -327 299 -760 365 -815 55 -47 73 -14 84 152 9
144 18 165 36 77 15 -77 21 -686 6 -737 -13 -49 -40 -34 -133 75 -103 118
-154 192 -220 315 -210 393 -300 538 -382 615 -62 57 -98 64 -137 26 -19 -18
-19 -20 -2 -86 29 -111 154 -493 207 -635 50 -131 61 -193 38 -216 -17 -17
-21 -15 -52 13 -29 27 -50 31 -91 15 -34 -13 -32 -21 41 -191 30 -69 54 -139
54 -154 0 -25 -3 -27 -29 -22 -16 3 -50 20 -76 36 -93 59 -145 61 -145 7 0
-39 56 -140 121 -218 245 -293 535 -646 574 -699 76 -104 108 -174 109 -244 1
-59 0 -60 -27 -63 -16 -2 -53 6 -83 18 -105 43 -162 24 -149 -50 4 -19 28 -75
55 -125 123 -230 134 -364 40 -499 -16 -25 -30 -50 -30 -56 0 -20 90 -190 177
-333 77 -127 180 -282 279 -421 66 -92 36 -126 -112 -126 -171 0 -487 30 -525
50 -19 11 -19 12 7 55 19 33 23 49 16 62 -6 10 -50 45 -99 78 -97 66 -111 93
-58 109 74 22 85 29 85 50 0 48 -106 121 -323 225 -134 64 -146 72 -223 152
-270 281 -432 485 -405 512 11 11 52 -10 146 -73 87 -59 135 -83 228 -117 82
-29 187 -81 362 -177 135 -74 178 -83 197 -41 10 23 8 29 -23 61 -19 20 -70
64 -114 99 -44 34 -107 91 -141 126 -71 75 -219 293 -209 308 10 17 44 13 135
-14 92 -28 130 -31 148 -13 41 41 -32 168 -231 400 -93 108 -117 141 -117 162
0 27 25 19 149 -46 72 -37 125 -59 135 -55 20 8 21 53 1 101 -42 100 -111 201
-396 577 -145 191 -299 469 -367 659 -17 47 -47 127 -67 178 -20 52 -47 142
-60 200 -14 59 -32 129 -40 156 -17 57 -20 106 -4 106 17 0 115 -98 239 -240
145 -166 178 -207 315 -389 112 -148 157 -190 183 -168 22 18 10 79 -63 322
-134 448 -221 678 -319 849 -119 208 -286 556 -286 594 1 23 74 -57 217 -236
148 -187 181 -222 210 -222 13 0 29 10 39 25 19 29 14 67 -22 183 -26 86 -31
136 -11 130 6 -2 41 -43 77 -91 86 -114 129 -157 157 -157 30 0 37 31 24 106
-5 32 -13 106 -16 164 -9 148 -26 207 -99 355 -36 72 -87 177 -115 235 -28 58
-80 152 -115 209 -64 102 -84 150 -71 171 13 20 37 9 92 -42z"/>
<path d="M15318 14213 c-55 -47 -291 -317 -339 -387 -19 -29 -50 -91 -69 -137
-18 -46 -91 -217 -161 -380 -150 -350 -153 -357 -274 -829 -52 -201 -99 -381
-105 -400 -19 -67 -13 -94 29 -128 36 -29 39 -36 46 -97 9 -85 27 -99 114 -89
74 8 80 0 62 -95 -6 -36 -18 -124 -26 -196 -7 -71 -19 -143 -25 -160 -6 -16
-20 -66 -30 -111 -40 -170 -175 -467 -269 -591 -89 -118 -200 -217 -335 -298
-278 -166 -317 -263 -131 -325 35 -12 68 -27 74 -34 16 -20 -12 -51 -82 -90
-144 -81 -143 -106 11 -229 84 -68 101 -87 116 -132 17 -47 11 -75 -24 -117
-42 -51 -125 -90 -315 -149 -269 -82 -291 -88 -450 -103 -166 -16 -197 -24
-220 -60 -21 -32 -10 -75 51 -208 56 -119 64 -161 38 -189 -11 -12 -78 -49
-149 -83 -177 -85 -183 -92 -205 -261 -25 -188 -71 -212 -422 -224 -170 -6
-200 -9 -215 -24 -17 -17 -17 -20 13 -75 17 -31 51 -95 77 -142 25 -47 60
-130 77 -185 52 -165 61 -185 87 -202 37 -24 53 -1 63 87 14 125 47 127 172
13 38 -36 97 -82 130 -103 91 -60 253 -140 281 -140 24 0 55 29 83 76 10 17
13 17 71 -9 97 -43 118 -36 129 47 4 26 13 50 20 53 7 3 69 -14 136 -36 175
-58 218 -55 218 15 0 14 7 27 16 31 9 3 68 -11 132 -30 208 -65 300 -80 343
-57 32 18 22 41 -51 112 -38 37 -70 75 -70 83 0 25 42 27 168 10 209 -29 251
11 140 131 -47 51 -114 102 -308 236 -142 98 -190 142 -173 159 14 14 134 25
408 38 274 13 312 29 271 110 -9 16 -16 39 -16 51 0 17 6 20 40 20 52 0 91 17
164 73 32 24 100 61 150 81 96 38 291 145 416 228 154 103 187 143 140 168
-25 13 -42 9 -220 -51 -231 -78 -296 -77 -183 1 56 39 79 66 88 102 8 30 -16
58 -49 58 -12 0 -31 6 -41 14 -18 13 -18 15 -2 40 10 15 74 68 143 120 146
109 566 460 653 546 63 62 74 89 48 125 -26 34 -88 15 -335 -104 -457 -220
-674 -283 -660 -190 4 31 71 83 332 263 337 231 352 253 250 352 -65 62 -95
71 -187 55 -82 -14 -117 -14 -117 1 0 26 57 92 166 188 138 122 166 158 168
208 1 33 -2 37 -27 40 -18 2 -59 -12 -112 -37 -46 -23 -88 -41 -94 -41 -5 0 7
31 27 69 l37 69 -17 36 c-24 49 -50 47 -177 -9 -56 -25 -111 -45 -123 -45 -18
0 -20 4 -15 40 3 22 73 181 156 354 301 629 313 661 392 1101 75 423 86 511
68 544 -16 29 -43 38 -63 22 -7 -6 -28 -50 -46 -99 -90 -240 -129 -330 -203
-474 -91 -179 -116 -214 -140 -205 -39 15 -13 257 73 687 60 299 90 401 179
612 38 89 74 181 80 203 53 194 -64 127 -236 -135 -79 -120 -121 -172 -133
-165 -12 7 6 86 40 171 17 43 72 152 122 242 147 265 233 483 226 571 -4 51
-33 53 -90 4z m-301 -616 c-23 -59 -112 -347 -132 -425 -67 -266 -75 -527 -18
-549 26 -10 68 50 93 130 43 142 50 162 70 195 30 49 44 32 37 -47 -3 -36 -43
-248 -88 -471 -75 -368 -82 -416 -83 -527 -1 -109 1 -124 20 -150 31 -41 54
-40 107 7 52 46 110 130 188 273 29 53 56 97 61 97 12 0 10 -52 -7 -181 -19
-144 -22 -152 -118 -344 -44 -88 -95 -200 -114 -250 -46 -118 -77 -179 -188
-365 -120 -201 -126 -214 -127 -260 0 -44 21 -78 81 -133 l40 -36 -57 -54
c-31 -30 -74 -69 -94 -87 -43 -36 -49 -69 -18 -100 11 -11 32 -22 47 -25 95
-19 100 -32 39 -106 -65 -79 -66 -94 -13 -162 43 -55 44 -58 34 -96 -8 -28 -7
-53 1 -88 16 -67 0 -85 -139 -159 -179 -97 -268 -153 -286 -181 -16 -24 -16
-26 2 -39 27 -20 160 -18 416 6 227 21 304 32 383 56 64 18 106 18 106 0 0
-26 -115 -120 -290 -234 -194 -127 -259 -162 -307 -162 -51 0 -141 -39 -179
-76 -37 -38 -40 -51 -22 -101 11 -32 10 -35 -26 -72 -61 -63 -43 -86 113 -146
107 -40 131 -55 131 -76 0 -53 -235 -82 -935 -114 -181 -9 -347 -19 -368 -24
-64 -15 -70 -26 -64 -107 10 -128 30 -149 327 -331 327 -201 420 -265 420
-291 0 -29 -60 -23 -336 34 -95 19 -191 34 -215 32 l-44 -3 -5 -55 c-6 -70 -5
-70 -187 11 -76 34 -156 64 -179 66 -35 5 -42 2 -57 -21 -10 -14 -23 -26 -30
-26 -8 0 -40 21 -73 46 -131 102 -157 94 -114 -31 12 -34 16 -63 11 -68 -5 -5
-35 -3 -70 4 -83 18 -97 5 -93 -86 1 -35 -2 -66 -8 -70 -16 -10 -68 22 -210
128 -171 129 -249 202 -232 219 7 7 61 15 135 19 256 15 376 108 410 321 8 46
19 93 26 105 13 24 61 52 126 73 65 21 114 49 160 92 77 70 83 143 20 268 -19
38 -35 83 -35 99 0 42 38 68 108 75 215 21 463 90 633 177 117 60 212 143 245
214 46 98 26 158 -78 242 -107 85 -116 125 -29 137 112 15 183 141 135 242
-19 39 -34 49 -105 70 -27 8 -49 20 -49 27 0 18 61 73 166 151 94 69 244 229
315 336 47 70 161 314 187 402 31 101 110 509 128 659 21 183 9 240 -56 274
-49 26 -52 42 -29 161 27 142 22 169 -37 194 -41 18 -44 22 -44 59 0 22 9 79
19 128 11 48 29 133 39 188 31 158 134 429 259 680 78 155 131 245 145 245 5
0 8 -6 5 -13z"/>
<path d="M21997 14114 c-159 -174 -210 -217 -457 -385 -293 -199 -403 -266
-615 -375 -441 -227 -905 -392 -1235 -439 -58 -8 -157 -26 -222 -39 -162 -36
-360 -49 -539 -37 -168 12 -228 23 -318 61 -116 49 -207 73 -230 60 -12 -6
-21 -15 -21 -21 0 -73 222 -245 402 -310 134 -49 421 -119 488 -119 75 0 160
-18 166 -35 10 -24 -15 -53 -94 -114 -79 -59 -142 -123 -142 -142 0 -47 56
-78 227 -124 208 -57 211 -73 50 -245 -159 -170 -267 -261 -436 -369 -195
-124 -250 -149 -499 -235 l-194 -66 -338 0 -338 0 -77 37 c-42 20 -99 38 -125
41 -42 4 -52 1 -74 -21 -22 -22 -24 -30 -15 -50 23 -50 143 -105 439 -202 356
-115 443 -130 770 -130 250 0 257 1 353 28 153 44 188 30 116 -48 -83 -90
-271 -197 -534 -305 -201 -83 -234 -111 -181 -157 52 -45 152 -31 396 54 108
38 153 45 176 28 17 -12 18 -15 3 -47 -20 -41 -245 -295 -320 -361 -89 -79
-330 -194 -589 -282 l-221 -75 -382 0 -382 0 -225 64 c-281 80 -343 93 -375
78 -60 -27 -5 -97 131 -169 153 -81 609 -246 769 -278 95 -20 382 -34 696 -35
l225 0 177 45 c180 46 277 57 277 32 0 -8 -53 -71 -117 -142 -140 -153 -214
-206 -428 -311 -333 -162 -732 -283 -1095 -333 -41 -6 -199 -20 -350 -31 -291
-21 -345 -30 -352 -58 -13 -53 21 -74 192 -121 63 -18 309 -97 545 -176 560
-188 706 -217 1143 -232 206 -6 239 -13 227 -45 -8 -19 -72 -42 -269 -93 -340
-89 -413 -144 -291 -221 89 -57 109 -77 101 -107 -15 -59 -176 -143 -380 -197
-161 -43 -488 -100 -571 -100 -97 0 -175 -16 -200 -40 -18 -19 -19 -22 -5 -48
35 -61 199 -141 343 -166 109 -19 343 -33 702 -42 154 -4 288 -10 299 -14 16
-5 13 -10 -22 -38 -29 -23 -71 -40 -158 -64 -118 -32 -120 -32 -399 -36 -377
-5 -746 11 -955 42 -223 33 -306 64 -736 277 -144 72 -277 132 -296 135 -71
12 -75 -51 -9 -152 35 -54 269 -329 483 -568 94 -104 123 -149 114 -172 -7
-19 -42 -18 -164 6 -117 23 -245 26 -282 7 -23 -12 -25 -19 -25 -74 0 -78 -10
-88 -83 -86 -56 1 -110 18 -327 98 -55 20 -153 52 -217 70 -126 36 -162 51
-283 120 -138 77 -167 59 -173 -109 -4 -134 -7 -146 -36 -146 -26 0 -65 29
-251 184 -164 138 -279 250 -392 383 -98 114 -169 179 -209 189 -51 13 -68 2
-104 -72 -40 -81 -57 -104 -76 -104 -7 0 -62 44 -122 99 -60 54 -119 102 -131
106 -34 11 -48 -10 -61 -88 -20 -121 -31 -165 -46 -178 -11 -9 -37 -1 -125 42
-88 43 -121 53 -162 54 -46 0 -52 -2 -61 -26 -18 -53 46 -154 283 -443 134
-164 273 -305 334 -340 36 -22 55 -27 80 -22 27 5 46 -2 107 -39 151 -91 170
-54 80 153 -81 187 -62 183 275 -62 81 -58 176 -115 290 -171 94 -47 238 -121
320 -165 83 -44 215 -107 295 -141 80 -34 233 -98 340 -144 208 -87 249 -100
305 -89 68 12 69 77 2 165 -75 97 -228 320 -237 344 -9 23 -7 25 16 25 13 0
80 -25 147 -56 285 -130 472 -192 608 -201 95 -6 129 -1 153 23 27 26 18 59
-34 136 -58 85 -62 104 -20 113 16 4 181 5 367 3 312 -3 341 -1 375 16 21 10
47 34 59 52 19 31 20 38 8 67 -7 17 -71 91 -141 163 -70 73 -132 144 -138 158
-23 62 15 75 142 51 83 -16 106 -17 228 -6 315 29 658 84 721 117 19 9 70 40
114 67 43 27 129 74 190 103 62 30 119 62 127 71 29 32 27 67 -7 117 -14 20
-25 39 -25 41 0 14 304 116 565 190 110 32 243 77 296 101 53 24 106 44 119
44 68 0 405 178 528 278 34 28 42 41 42 67 0 114 -113 89 -600 -134 l-154 -71
-146 -2 c-162 -2 -235 11 -274 47 -60 56 -8 131 164 234 150 91 705 513 764
583 67 78 56 134 -28 132 -23 0 -85 -13 -137 -27 -115 -32 -268 -55 -414 -63
-101 -5 -124 -3 -279 30 -196 42 -274 77 -367 166 -80 76 -79 92 9 131 120 55
423 176 631 253 230 85 298 120 619 313 396 238 445 275 746 572 255 252 629
640 705 730 59 72 64 104 18 109 -20 3 -60 -15 -141 -62 -149 -87 -682 -313
-896 -381 -204 -64 -655 -116 -655 -75 0 8 23 28 52 45 228 132 610 369 818
508 281 187 493 356 770 611 66 61 204 184 307 274 152 132 202 182 266 268
115 153 156 245 116 261 -26 10 -70 -20 -204 -139 -132 -116 -240 -192 -430
-300 -180 -102 -431 -235 -566 -300 -182 -87 -462 -181 -524 -176 -30 3 -35 7
-38 32 -3 23 6 37 45 75 26 25 84 71 128 102 44 31 95 73 113 94 28 31 33 43
30 78 -3 41 -4 42 -45 45 -43 3 -68 -2 -272 -62 -68 -20 -127 -34 -130 -30
-12 12 48 47 163 94 180 75 691 342 824 432 40 27 112 85 160 128 48 43 125
112 172 152 121 105 457 491 597 686 109 151 168 284 144 321 -14 22 -88 -26
-152 -99 -186 -212 -255 -264 -514 -390 -266 -129 -557 -233 -603 -215 -25 10
44 68 154 130 156 87 253 157 534 381 288 231 292 235 485 484 49 63 140 175
202 248 62 73 124 155 138 182 29 58 34 130 9 151 -13 11 -26 0 -97 -77z
m-307 -421 c0 -35 -165 -226 -280 -327 -142 -124 -597 -482 -664 -523 -32 -20
-172 -90 -309 -155 -284 -134 -332 -160 -348 -189 -9 -17 -5 -25 26 -55 49
-46 80 -45 302 10 98 24 234 53 303 65 187 32 243 62 675 358 99 68 149 93
161 80 11 -11 -27 -74 -98 -162 -98 -123 -519 -543 -593 -592 -33 -22 -134
-82 -225 -133 -91 -51 -230 -131 -310 -177 -226 -133 -339 -186 -664 -313
-221 -86 -246 -125 -119 -189 53 -26 60 -26 185 4 114 28 208 33 208 12 0 -16
-48 -62 -120 -114 -110 -80 -146 -146 -101 -187 33 -30 121 -41 218 -29 121
16 235 53 388 128 184 90 619 288 688 314 58 21 97 27 97 14 0 -30 -208 -236
-395 -390 -314 -259 -1086 -737 -1469 -910 -188 -85 -184 -83 -217 -120 -37
-43 -37 -68 2 -104 40 -38 74 -43 248 -36 167 6 251 20 511 83 208 50 316 84
610 192 206 75 280 95 280 74 0 -21 -115 -145 -326 -352 -445 -437 -804 -696
-1094 -791 -47 -15 -227 -96 -400 -179 -469 -226 -607 -281 -749 -299 -113
-14 -126 -43 -53 -123 103 -114 366 -253 628 -333 132 -40 192 -43 407 -23
144 13 163 8 133 -36 -38 -59 -388 -328 -578 -445 -88 -54 -126 -84 -149 -117
-54 -79 -51 -159 8 -225 42 -46 75 -66 153 -89 42 -12 56 -21 58 -37 3 -19 -6
-25 -70 -44 -195 -58 -386 -96 -678 -135 -106 -14 -143 -15 -250 -5 -69 6
-185 16 -258 22 -250 19 -240 48 35 108 160 34 257 67 363 122 151 78 280 201
280 267 0 14 -9 44 -20 67 -34 70 -39 67 218 145 138 41 267 98 352 155 81 54
100 77 100 122 0 56 -14 58 -328 44 -508 -23 -747 12 -1277 190 -322 107 -409
156 -341 187 14 6 132 27 263 47 420 63 552 95 800 193 81 33 159 62 173 65
62 15 349 217 502 353 79 71 176 181 216 246 18 29 22 49 20 90 l-3 53 -38 3
c-23 2 -126 -18 -245 -47 -114 -27 -236 -55 -272 -60 -305 -47 -247 -46 -542
-12 -269 32 -353 48 -411 77 l-32 17 45 13 c44 13 119 22 370 45 122 10 290
48 466 103 94 30 379 190 455 255 75 64 397 418 435 477 60 93 55 132 -22 164
-30 13 -44 25 -44 38 0 32 44 86 78 98 65 21 173 149 193 228 24 94 -15 99
-308 36 -227 -50 -300 -56 -468 -41 -218 20 -361 59 -329 91 5 5 65 18 134 29
204 33 339 76 535 171 397 192 743 508 881 805 49 104 34 118 -126 119 -104 1
-122 4 -147 22 -48 36 -42 56 40 142 84 88 117 144 117 197 0 29 -5 37 -26 45
-14 6 -146 26 -293 45 -276 36 -386 60 -386 85 0 24 96 39 320 49 169 8 231
15 315 35 58 14 124 26 146 26 193 0 675 156 1039 336 198 98 592 316 735 407
195 124 260 156 260 130z m-5624 -6771 c248 -119 329 -148 472 -168 59 -8 145
-21 192 -30 161 -28 442 -38 716 -24 137 7 260 9 272 6 69 -22 -25 -88 -150
-106 -39 -6 -101 -17 -136 -25 -35 -8 -86 -15 -113 -15 -28 0 -125 -7 -217
-16 -143 -14 -183 -15 -277 -4 -149 17 -276 10 -313 -17 -36 -26 -39 -59 -10
-90 39 -44 215 -170 252 -183 60 -19 148 -141 122 -167 -25 -25 -461 -42 -606
-23 -171 23 -195 23 -213 5 -23 -23 -21 -63 6 -107 12 -20 35 -57 51 -83 42
-68 31 -80 -70 -79 -56 1 -101 9 -154 27 -158 53 -482 214 -635 316 -137 90
-65 102 150 24 136 -50 267 -78 420 -90 83 -7 92 4 75 91 -7 35 -10 71 -6 81
7 19 25 19 297 -1 131 -10 193 19 170 78 -12 31 -255 321 -401 478 -148 159
-170 187 -170 212 0 18 5 20 34 15 18 -3 127 -50 242 -105z m-2228 -144 c143
-174 592 -576 751 -672 38 -23 81 -41 107 -44 41 -4 44 -3 55 24 6 16 14 81
18 144 4 64 10 121 15 128 13 21 49 13 136 -30 83 -43 84 -44 97 -93 7 -31 40
-91 86 -160 116 -170 267 -418 267 -436 0 -37 -54 -32 -205 18 -207 68 -394
166 -633 333 -149 104 -232 172 -468 384 -92 83 -177 146 -196 146 -15 0 -8
-31 23 -91 57 -114 24 -110 -177 21 -124 81 -169 104 -185 94 -12 -7 -10 -57
5 -129 24 -112 8 -112 -106 5 -125 128 -132 147 -94 245 8 22 15 61 16 87 0
54 21 82 54 72 11 -3 53 -26 92 -50 119 -73 146 -70 214 21 22 30 47 55 55 55
7 0 41 -33 73 -72z"/>
<path d="M2267 11883 c-14 -13 -6 -123 12 -180 61 -185 288 -621 435 -833 245
-353 230 -335 486 -590 353 -352 375 -381 314 -396 -14 -4 -76 -1 -137 6 -162
19 -233 19 -253 -2 -43 -43 57 -127 506 -428 325 -218 400 -282 400 -343 0
-67 -48 -104 -328 -251 -268 -140 -337 -191 -433 -320 -76 -99 -99 -145 -99
-194 0 -72 58 -94 137 -54 49 25 201 67 316 87 97 16 75 19 337 -40 252 -56
298 -68 378 -101 45 -19 106 -47 135 -63 46 -27 116 -55 359 -147 75 -28 128
-71 128 -103 0 -54 -93 -92 -305 -127 -215 -35 -285 -65 -285 -123 0 -62 67
-91 330 -146 159 -33 262 -106 344 -246 153 -259 285 -374 539 -469 124 -47
214 -60 387 -59 138 2 174 8 178 32 6 32 -45 84 -291 296 -335 288 -380 339
-341 382 9 10 22 19 28 19 20 0 162 77 214 116 65 48 79 79 62 138 -33 119
-150 248 -393 435 -100 77 -250 193 -333 258 -173 135 -276 199 -388 242 -109
42 -126 55 -126 94 0 19 11 67 25 107 35 102 33 154 -6 213 -17 26 -97 109
-177 184 -187 176 -241 232 -249 261 -3 15 6 51 23 95 44 108 40 170 -20 320
-29 74 -48 140 -52 180 l-6 62 -102 100 c-138 136 -399 357 -503 428 -128 86
-199 154 -644 612 -501 515 -571 579 -602 548z m417 -500 c474 -492 817 -811
1111 -1035 55 -41 108 -85 119 -96 25 -29 164 -344 184 -418 l16 -61 -38 -77
c-33 -67 -37 -83 -32 -121 14 -89 121 -215 306 -357 111 -86 160 -150 160
-209 0 -36 -8 -48 -79 -122 -109 -114 -122 -144 -78 -185 33 -32 96 -56 260
-102 82 -23 167 -50 190 -60 23 -10 119 -80 212 -155 94 -76 252 -201 353
-277 245 -188 302 -253 302 -345 0 -72 -43 -105 -200 -158 -117 -38 -140 -55
-140 -101 0 -50 59 -116 253 -281 94 -81 204 -179 242 -216 l70 -69 -28 -24
c-81 -70 -309 11 -515 182 -101 84 -133 122 -203 236 -84 139 -179 224 -314
283 -107 47 -113 51 -95 68 8 8 61 29 118 47 80 25 130 50 225 110 159 102
199 136 195 169 -5 40 -54 61 -211 87 -175 30 -227 48 -547 189 -140 61 -284
122 -319 134 -75 26 -428 70 -635 80 -95 4 -141 10 -143 18 -7 20 75 100 155
151 43 27 134 75 203 106 240 108 439 269 439 354 0 40 -288 273 -445 360 -41
23 -109 61 -150 84 -87 48 -185 132 -185 157 0 24 58 31 258 31 l152 0 0 23
c0 52 -123 178 -475 488 -222 196 -253 227 -350 348 -104 130 -428 627 -492
756 -39 76 -65 154 -59 172 12 31 49 3 210 -164z"/>
<path d="M8488 11633 c-9 -10 -32 -56 -52 -103 -134 -307 -309 -595 -781
-1280 -402 -583 -430 -629 -538 -856 -41 -87 -120 -254 -175 -370 -122 -255
-144 -310 -182 -441 -16 -56 -47 -142 -69 -190 -94 -211 -211 -676 -211 -842
0 -25 -7 -84 -15 -131 -17 -96 -21 -651 -5 -775 12 -102 87 -498 110 -586 26
-102 77 -221 180 -424 223 -439 398 -653 982 -1208 144 -136 194 -191 218
-236 26 -48 41 -63 94 -94 181 -104 539 -455 737 -722 142 -191 188 -246 222
-260 54 -22 76 2 56 64 -10 32 -415 645 -1017 1538 -203 300 -375 573 -487
773 -27 47 -72 121 -102 165 -34 53 -67 119 -92 190 -21 61 -73 191 -116 290
-112 261 -120 284 -190 569 l-65 260 0 310 c0 344 10 522 41 731 41 281 104
473 260 797 60 124 109 229 109 231 0 14 174 377 437 912 308 627 366 751 486
1045 41 102 110 262 152 355 80 177 101 259 75 290 -17 20 -43 19 -62 -2z
m-478 -1088 c0 -13 -64 -162 -89 -207 -16 -29 -68 -137 -115 -240 -47 -103
-108 -222 -136 -265 -27 -43 -50 -83 -50 -90 0 -6 -26 -67 -59 -135 -32 -68
-72 -157 -87 -198 -16 -41 -46 -102 -67 -135 -78 -125 -182 -360 -237 -535
-23 -74 -50 -148 -60 -165 -24 -40 -134 -316 -154 -386 -38 -130 -57 -360 -63
-739 -7 -441 1 -552 51 -706 19 -60 44 -152 54 -205 13 -62 43 -152 84 -250
36 -85 73 -176 83 -204 35 -97 119 -281 153 -335 19 -30 52 -91 72 -136 21
-44 49 -99 64 -122 14 -23 26 -48 26 -55 0 -47 198 -387 314 -540 35 -45 108
-149 163 -232 55 -82 162 -240 237 -349 129 -188 147 -224 120 -233 -13 -4
-209 165 -384 332 -64 61 -151 139 -193 175 -66 55 -389 389 -499 515 -51 58
-245 325 -322 442 -71 108 -200 396 -241 540 -14 47 -39 151 -55 231 -17 81
-38 170 -47 197 -19 55 -25 178 -24 490 2 307 32 620 77 789 13 50 33 134 44
186 12 52 40 156 64 230 48 148 80 263 91 325 10 61 88 247 174 416 172 340
321 620 383 720 86 138 398 607 456 684 115 152 172 216 172 190z"/>
<path d="M10455 6480 c-19 -20 -18 -26 17 -238 42 -249 73 -355 158 -527 90
-181 174 -275 212 -237 6 6 13 37 15 69 5 77 11 103 24 103 5 0 43 -31 82 -68
75 -71 113 -90 147 -72 23 12 52 65 71 129 23 78 54 64 115 -52 55 -106 83
-145 240 -332 282 -338 467 -475 496 -370 18 63 -47 433 -114 648 -57 187 -79
278 -71 308 9 33 55 20 158 -45 105 -66 179 -96 238 -96 48 0 87 22 87 49 0
20 -12 26 -122 61 -83 26 -156 73 -278 179 -125 107 -162 117 -176 45 -13 -71
19 -234 131 -664 47 -178 60 -289 38 -311 -32 -32 -111 28 -273 212 -187 210
-276 351 -340 534 -51 148 -90 202 -128 179 -31 -19 -42 -60 -52 -185 -7 -95
-13 -129 -28 -148 -57 -77 -119 1 -147 188 -19 129 -47 187 -81 174 -23 -9
-37 -74 -43 -203 -4 -69 -10 -131 -14 -137 -33 -53 -102 51 -190 282 -46 121
-66 211 -88 385 -18 148 -41 187 -84 140z"/>
<path d="M12718 6299 c-44 -25 -5 -200 83 -369 43 -82 240 -362 297 -423 21
-22 64 -59 97 -85 119 -90 157 -137 125 -157 -6 -4 -43 -15 -83 -26 -74 -21
-107 -41 -107 -66 0 -8 9 -32 20 -54 16 -30 42 -54 103 -93 227 -147 312 -179
767 -287 113 -27 217 -54 233 -60 72 -30 2 -105 -160 -170 -58 -23 -119 -53
-135 -67 -27 -23 -30 -30 -25 -65 7 -50 38 -82 96 -102 88 -29 457 -85 688
-105 254 -22 289 -28 378 -65 33 -13 75 -25 93 -25 61 0 155 54 444 256 80 57
167 113 191 125 56 27 82 20 73 -19 -16 -72 -18 -122 -6 -137 21 -25 86 -19
133 14 23 16 132 115 242 220 149 142 228 210 311 265 61 40 164 118 230 173
130 108 627 585 632 606 4 20 -33 48 -65 49 -42 1 -72 -10 -133 -52 -78 -53
-312 -186 -471 -268 -112 -57 -194 -88 -460 -175 -435 -142 -485 -155 -620
-168 -157 -15 -173 -8 -177 78 -2 39 -8 66 -18 74 -18 15 -325 27 -703 28
l-254 1 -165 51 c-411 126 -642 226 -867 374 -169 112 -411 331 -485 440 -65
96 -100 138 -182 223 -71 72 -87 80 -120 61z m447 -643 c28 -18 109 -81 180
-140 72 -59 148 -117 170 -128 45 -23 694 -270 820 -312 156 -51 204 -57 520
-66 165 -4 307 -11 317 -15 9 -3 19 -18 23 -33 10 -40 42 -69 99 -89 82 -29
376 -26 516 5 199 44 730 231 1005 354 114 51 145 61 163 49 20 -12 -1 -54
-55 -113 -51 -54 -438 -368 -538 -435 -33 -23 -116 -91 -185 -153 -69 -62
-137 -118 -152 -126 -27 -14 -28 -13 -28 8 0 13 11 57 24 98 13 41 21 80 19
88 -13 33 -98 -10 -443 -228 -280 -176 -355 -220 -379 -220 -9 0 -32 17 -54
38 l-38 37 -236 7 c-402 12 -664 49 -760 108 -58 35 -41 59 77 103 207 77 313
171 278 245 -22 46 -87 70 -242 87 -177 19 -331 54 -521 116 -157 52 -318 130
-341 165 -13 19 -9 25 51 86 113 113 101 134 -180 298 -105 61 -140 91 -166
142 -35 69 -20 76 56 24z"/>
<path d="M6920 4529 c-90 -32 -177 -47 -407 -70 -272 -27 -390 -27 -623 1
-290 35 -506 23 -880 -50 -57 -11 -126 -27 -153 -36 -91 -30 -158 -124 -87
-124 16 0 123 23 237 50 315 76 343 78 753 46 402 -31 418 -31 530 -10 47 8
135 17 197 19 222 8 533 119 533 189 0 11 -46 4 -100 -15z"/>
<path d="M18027 4270 c-257 -19 -427 -84 -427 -162 0 -36 8 -36 140 3 85 24
135 32 263 39 87 6 187 17 223 25 36 8 86 15 111 15 51 0 476 -106 1028 -257
451 -123 841 -214 1080 -252 565 -92 611 -98 633 -90 35 13 28 47 -14 65 -19
8 -245 57 -502 108 -257 52 -575 120 -707 151 -404 95 -992 241 -1142 284
-227 64 -456 88 -686 71z"/>
<path d="M15705 3986 c-22 -8 -67 -26 -100 -41 -91 -41 -186 -73 -335 -109
-251 -62 -291 -66 -773 -75 -244 -4 -449 -11 -456 -15 -40 -25 58 -40 404 -61
138 -8 266 -18 285 -21 155 -25 126 -58 -88 -100 -185 -36 -202 -52 -205 -187
-2 -75 -5 -89 -26 -111 -36 -38 -74 -46 -312 -60 -137 -9 -227 -19 -245 -27
-16 -8 -38 -31 -49 -52 -39 -75 -57 -72 -235 28 -95 54 -133 69 -227 91 -62
15 -121 33 -131 40 -16 13 -15 15 8 33 45 35 100 41 392 41 297 0 385 8 449
41 75 38 57 100 -51 179 -33 24 -87 72 -118 106 -52 56 -63 63 -116 74 -68 14
-126 9 -161 -14 -51 -34 -36 -48 155 -150 132 -71 160 -94 160 -132 l0 -24
-332 0 -331 0 -106 -56 c-137 -72 -171 -98 -171 -130 0 -34 53 -57 200 -85
121 -23 127 -25 431 -182 157 -80 227 -107 284 -107 58 0 68 18 64 123 l-4 82
39 13 c21 7 96 16 166 21 123 9 239 35 303 68 34 17 52 56 67 146 7 37 20 78
31 91 19 25 23 26 284 89 77 19 176 49 220 67 44 18 149 59 233 91 246 94 428
199 478 274 33 50 0 67 -81 41z"/>
<path d="M2920 3904 c-58 -23 -87 -27 -270 -35 -440 -20 -564 -29 -815 -64
-355 -49 -519 -78 -730 -130 -384 -94 -733 -230 -935 -364 -83 -55 -160 -122
-160 -140 0 -17 52 7 226 104 177 99 197 107 434 180 100 31 234 75 298 99
145 54 224 76 422 116 85 17 184 37 220 45 40 9 174 19 345 25 514 19 676 29
755 49 41 11 110 27 153 36 79 17 147 59 147 91 0 19 -14 17 -90 -12z"/>
<path d="M7825 3725 c-164 -55 -268 -67 -640 -72 -181 -3 -427 0 -545 6 -318
16 -1228 35 -1282 27 -68 -10 -81 -26 -72 -92 l6 -53 -38 -9 c-22 -6 -149 -20
-284 -32 -297 -26 -597 -63 -728 -90 -134 -27 -458 -141 -559 -196 -112 -62
-199 -127 -219 -165 -24 -47 -8 -71 63 -97 60 -22 189 -33 908 -82 280 -19
347 -29 428 -63 35 -15 37 -18 37 -64 0 -26 5 -77 10 -112 11 -81 42 -115 149
-165 116 -54 239 -81 511 -111 135 -14 310 -35 389 -46 221 -29 419 -23 756
25 119 17 227 24 606 36 158 5 298 14 313 19 34 13 34 43 -1 70 -30 24 -113
50 -363 115 -254 66 -321 75 -650 86 -594 20 -718 35 -809 96 -35 23 -81 78
-81 97 0 3 27 38 59 78 33 40 62 81 65 91 8 31 -26 54 -105 72 -93 21 -165 54
-207 95 -65 65 -43 78 203 124 287 55 350 63 740 102 198 19 497 49 665 66
355 35 464 55 601 110 188 74 271 127 248 156 -18 20 -66 15 -174 -22z m-1970
-105 c457 -18 693 -37 733 -59 12 -7 10 -12 -14 -23 -40 -21 -159 -42 -429
-78 -295 -39 -362 -52 -575 -107 -191 -49 -230 -65 -230 -91 0 -50 193 -193
312 -231 21 -7 40 -16 43 -21 8 -13 -19 -61 -50 -90 -15 -14 -34 -40 -41 -58
-19 -43 -3 -75 60 -120 141 -101 328 -132 805 -132 345 0 438 -9 601 -56 141
-41 160 -49 160 -68 0 -20 -23 -26 -92 -26 -33 0 -122 -9 -197 -20 -75 -11
-206 -26 -291 -35 -164 -16 -234 -28 -314 -51 -68 -19 -129 -18 -217 6 -43 12
-151 26 -259 35 -218 17 -433 53 -562 94 -51 16 -119 37 -150 45 -68 19 -114
56 -126 100 -5 17 -7 65 -4 106 4 72 3 76 -23 103 -16 15 -51 34 -79 42 -69
20 -379 52 -616 65 -625 33 -661 36 -690 65 -19 19 -6 42 39 70 17 11 80 52
139 90 102 67 116 73 287 122 274 78 281 79 720 123 171 17 377 40 459 50 172
22 191 32 183 92 -10 72 5 74 418 58z"/>
<path d="M17345 3684 c-169 -41 -331 -76 -416 -88 -104 -16 -181 -36 -344 -90
-106 -36 -149 -58 -153 -77 -5 -25 25 -29 263 -29 397 -1 462 -10 1170 -151
339 -67 644 -141 742 -178 105 -41 173 -98 173 -146 0 -61 -109 -130 -222
-140 -34 -3 -317 -10 -628 -16 -321 -5 -608 -15 -665 -22 -100 -12 -101 -13
-186 -75 -118 -85 -225 -145 -344 -191 -152 -59 -184 -63 -397 -51 -393 22
-770 -35 -963 -145 -106 -61 -141 -104 -131 -158 11 -60 41 -77 173 -99 150
-25 191 -21 384 41 85 27 191 56 235 65 202 38 602 51 879 28 121 -10 190 -11
285 -3 186 16 189 17 258 114 90 128 58 121 557 128 335 5 458 11 609 28 220
25 230 29 371 147 50 42 103 83 119 91 87 46 313 97 471 108 55 4 126 13 157
21 80 20 394 69 633 99 311 39 395 63 395 114 0 61 -139 106 -378 121 -146 9
-191 16 -413 64 -64 14 -169 32 -234 41 -65 8 -124 20 -131 26 -21 17 1 50 63
94 91 66 102 99 40 128 -112 53 -383 78 -1047 97 -453 13 -601 23 -712 50
-129 30 -555 68 -613 54z m490 -129 c198 -39 262 -43 790 -55 733 -16 885 -31
885 -90 0 -10 -15 -29 -32 -41 -95 -64 -120 -114 -75 -144 44 -28 404 -90 757
-130 163 -18 231 -31 255 -49 17 -13 17 -14 -6 -29 -37 -23 -147 -44 -432 -83
-515 -68 -580 -80 -727 -126 -147 -47 -268 -111 -395 -211 -72 -57 -138 -84
-235 -96 -49 -7 -301 -11 -606 -11 l-522 0 -50 -39 c-60 -48 -86 -80 -114
-141 l-22 -47 -104 -7 c-58 -3 -184 -6 -281 -6 -262 -1 -696 -17 -776 -30 -39
-6 -117 -26 -175 -45 -58 -18 -186 -49 -285 -69 -188 -37 -238 -37 -273 -2
-13 13 -13 17 1 39 38 58 214 150 317 166 90 14 584 41 760 41 89 0 164 5 195
14 100 26 379 151 494 220 66 40 127 62 213 76 87 14 406 28 828 36 l355 6
120 48 c211 83 295 134 295 178 0 47 -128 118 -375 207 -252 91 -468 145 -950
235 -148 27 -301 57 -340 66 -89 21 -165 53 -165 69 0 17 81 56 150 72 89 21
366 9 525 -22z"/>
<path d="M10432 3637 c-9 -11 -8 -31 7 -88 36 -137 104 -281 210 -439 104
-155 225 -383 237 -445 14 -74 -25 -71 -226 16 -156 68 -289 147 -515 304
-218 151 -264 177 -308 173 -35 -3 -46 -19 -74 -113 -11 -37 -24 -61 -34 -63
-21 -4 -78 53 -202 198 -116 135 -163 178 -179 162 -37 -37 256 -424 381 -504
77 -48 89 -40 116 80 9 39 23 76 31 83 20 17 61 -3 172 -85 124 -91 214 -143
482 -275 357 -177 487 -234 509 -222 43 23 34 100 -20 186 -149 234 -379 644
-379 675 0 20 34 9 120 -40 136 -79 182 -78 219 5 17 39 24 45 50 45 17 0 94
-25 171 -55 173 -67 233 -85 260 -78 42 11 12 37 -125 107 -77 40 -186 102
-242 139 -122 81 -183 109 -226 105 l-32 -3 -3 -77 -3 -78 -32 0 c-58 0 -96
34 -259 230 -55 66 -85 82 -106 57z"/>
<path d="M12233 3075 c-54 -23 -45 -76 32 -184 51 -72 76 -129 73 -164 -3 -31
-4 -32 -58 -35 -120 -8 -295 41 -622 174 -114 46 -216 84 -226 84 -28 0 -33
-23 -12 -57 35 -58 234 -171 403 -229 88 -30 508 -104 593 -104 126 0 134 51
30 203 -77 112 -96 148 -96 181 0 21 7 27 43 36 74 19 91 29 77 45 -16 19
-103 51 -160 58 -29 4 -56 1 -77 -8z"/>
<path d="M90 2478 c0 -36 54 -121 121 -193 63 -67 198 -164 300 -216 294 -148
710 -244 1169 -269 473 -26 560 -32 625 -45 39 -8 102 -14 140 -15 151 0 223
-36 397 -193 251 -226 335 -265 646 -298 202 -21 201 -21 432 21 85 16 193 33
240 39 47 6 101 14 120 17 35 6 35 6 10 17 -17 7 -159 12 -425 12 -331 1 -411
4 -466 18 -167 41 -250 92 -509 312 -112 95 -130 108 -195 129 -80 27 -225 43
-690 76 -665 46 -711 52 -1042 130 -283 67 -576 223 -747 396 -86 87 -126 107
-126 62z"/>
<path d="M21243 2186 c-108 -81 -147 -94 -438 -146 -303 -53 -987 -159 -1130
-175 -107 -11 -228 -35 -310 -62 -152 -49 -327 -151 -438 -256 -35 -32 -37
-38 -37 -94 0 -176 -136 -686 -214 -801 -95 -142 -315 -218 -791 -273 -142
-16 -919 -23 -1160 -10 -364 20 -663 25 -740 12 -91 -15 -150 -48 -150 -81 0
-35 33 -37 164 -10 112 24 177 24 411 1 146 -14 631 -31 895 -31 233 0 528 13
685 31 119 13 402 73 498 105 228 76 328 233 396 619 51 291 67 361 95 421 43
91 114 143 315 228 161 69 222 83 561 126 565 73 762 105 1030 170 195 48 487
206 469 254 -11 28 -50 18 -111 -28z"/>
<path d="M13247 2099 c-21 -29 -21 -63 -1 -122 9 -26 14 -54 11 -62 -8 -19
-62 -33 -202 -50 -438 -52 -749 -57 -925 -14 -88 21 -116 23 -390 24 -317 0
-375 -5 -585 -55 -510 -122 -991 -94 -1403 81 -53 23 -134 54 -180 70 -329
115 -1209 186 -1291 104 -12 -12 -12 -17 2 -39 9 -14 36 -36 59 -49 37 -21 61
-26 168 -31 144 -7 339 -35 490 -71 181 -44 193 -50 304 -146 73 -64 131 -105
207 -145 112 -58 149 -85 149 -110 0 -8 -27 -41 -60 -74 -51 -50 -60 -65 -60
-94 0 -44 34 -78 110 -109 50 -20 72 -22 225 -21 186 0 270 14 455 73 255 82
412 105 711 106 l226 0 69 -47 c147 -101 202 -110 429 -73 204 33 253 45 373
96 240 103 410 117 752 64 193 -30 396 -38 825 -32 698 9 933 44 1122 166 121
78 124 149 9 220 -17 11 -89 40 -161 64 -71 25 -173 62 -225 82 -75 29 -117
38 -205 46 -183 16 -354 48 -470 89 -117 42 -267 71 -396 77 -124 6 -126 6
-142 -18z m538 -138 c412 -84 604 -128 730 -168 61 -19 128 -39 150 -45 41
-12 116 -58 112 -70 -6 -18 -147 -133 -184 -150 -61 -27 -200 -45 -548 -69
-480 -34 -880 -28 -1090 17 -163 35 -229 44 -385 50 l-165 7 -240 -88 c-440
-162 -503 -168 -718 -69 -55 25 -133 52 -173 60 -238 45 -612 16 -761 -60 -27
-13 -124 -47 -218 -76 -142 -45 -186 -54 -267 -58 -107 -5 -277 12 -317 31
-50 24 -37 71 44 166 72 85 70 88 -120 192 -107 58 -182 106 -228 147 -77 69
-125 90 -332 147 -71 20 -137 42 -145 50 -36 36 223 7 450 -50 52 -13 187 -55
300 -93 113 -39 219 -73 235 -76 17 -3 170 -20 340 -37 335 -33 508 -35 645
-4 123 27 395 75 485 85 116 13 464 13 580 0 50 -6 133 -21 185 -35 181 -46
393 -57 500 -25 67 20 166 31 350 40 302 15 339 30 364 154 8 38 20 72 28 77
28 18 113 7 393 -50z"/>
<path d="M6020 657 c0 -34 49 -104 121 -173 141 -135 199 -145 919 -164 581
-15 925 -29 1005 -40 39 -6 117 -24 175 -40 203 -57 379 -78 735 -87 394 -9
396 -9 936 180 327 115 578 152 964 144 268 -6 351 -19 537 -83 127 -44 167
-67 338 -194 74 -55 170 -118 212 -140 106 -56 185 -64 533 -57 301 7 422 18
493 46 26 10 90 24 142 30 52 6 120 19 150 28 52 16 53 17 22 21 -17 2 -137
-7 -265 -19 -275 -26 -628 -31 -752 -10 -168 28 -247 63 -480 212 -205 130
-422 226 -600 264 -103 22 -225 19 -613 -15 -532 -47 -611 -62 -811 -154 -215
-100 -464 -158 -729 -172 -103 -6 -140 -3 -306 25 -220 38 -425 79 -581 117
l-110 28 -815 3 -815 4 -114 62 c-82 44 -136 82 -192 134 -42 40 -82 73 -88
73 -6 0 -11 -10 -11 -23z"/>
</g>
</svg>
